<svg width="228" height="64" viewBox="0 0 228 64" fill="none" xmlns="http://www.w3.org/2000/svg">
<path d="M63.0625 31.6035H86.4414C86.3242 35.5879 86.1484 39.4785 85.9141 43.2754C85.6328 47.6582 83.5586 49.8379 79.6914 49.8145C77.793 49.8379 75.7891 49.7793 73.6797 49.6387C73.5391 48.6543 73.375 47.6582 73.1875 46.6504C74.9922 46.9082 77.0078 47.0488 79.2344 47.0723C81.5781 47.1191 82.8672 45.748 83.1016 42.959C83.2891 40.4277 83.4297 37.5098 83.5234 34.2051H72.7129C72.4316 38.1191 71.6172 41.2715 70.2695 43.6621C68.4883 46.8027 65.5 49.2285 61.3047 50.9395C60.6953 50.1426 60.0273 49.3574 59.3008 48.584C63.1914 47.1309 65.9922 45.0215 67.7031 42.2559C68.9336 40.1582 69.6426 37.4746 69.8301 34.2051H63.0625V31.6035ZM77.6172 16.9785L80.1484 15.8887C82.7266 22.1699 87.25 26.8691 93.7188 29.9863C92.6641 31.0879 91.9023 31.9785 91.4336 32.6582C84.9883 28.9316 80.3828 23.7051 77.6172 16.9785ZM58.2812 30.4434C63.1094 27.0215 67.2344 22.3574 70.6562 16.4512L73.1523 17.8223C69.5898 24.0566 65.3125 29.0605 60.3203 32.834C59.8281 32.1074 59.1484 31.3105 58.2812 30.4434ZM109.609 19.0176C115.398 18.9238 121.188 18.4199 126.977 17.5059L127.926 20.0371C122.98 20.7637 117.777 21.2441 112.316 21.4785V29.3184H129.473V31.8848H122.863V50.5879H120.156V31.8848H112.316V33.2207C112.316 40.8379 110.383 46.6973 106.516 50.7988C105.93 49.9551 105.32 49.1816 104.688 48.4785C107.969 44.9629 109.609 39.8652 109.609 33.1855V19.0176ZM94.4922 38.1777C96.9297 34.6152 98.7695 30.502 100.012 25.8379H94.9844V23.4121H100.082V16.416H102.648V23.4121H107.5V25.8379H102.648V29.8457L103.949 28.8262C106.082 31.334 107.629 33.3379 108.59 34.8379L106.41 36.4551C105.309 34.7207 104.055 32.916 102.648 31.041V50.5879H100.082V32.5176C98.8867 36.0332 97.4336 38.9629 95.7227 41.3066C95.4414 40.4863 95.0312 39.4434 94.4922 38.1777ZM144.59 25.0293H151.094L152.078 20.6348H143.781V18.1738H164.98V20.6348H155.137L153.977 25.0293H163.223V43.3809H160.48V27.4902H147.332V43.3809H144.59V25.0293ZM130.246 42.2559C132.168 41.834 133.938 41.4238 135.555 41.0254V22.3574H130.738V19.8262H142.797V22.3574H138.297V40.3574C140.242 39.8887 141.906 39.4668 143.289 39.0918C143.336 40.3105 143.418 41.2363 143.535 41.8691C137.91 43.2754 133.738 44.3535 131.02 45.1035L130.246 42.2559ZM152.535 29.7754H155.277V35.2246C155.277 37.6621 154.949 39.8066 154.293 41.6582C158.395 43.8613 162.062 46.0527 165.297 48.2324L163.469 50.7285C160.234 48.3145 156.812 46.0645 153.203 43.9785C153.039 44.2363 152.875 44.4824 152.711 44.7168C150.812 47.3184 147.473 49.4746 142.691 51.1855C142.223 50.459 141.637 49.6621 140.934 48.7949C145.527 47.248 148.703 45.3145 150.461 42.9941C151.844 41.2129 152.535 38.5879 152.535 35.1191V29.7754ZM171.309 17.7871H196.762V50.3418H193.773V47.7051H174.297V50.3418H171.309V17.7871ZM174.297 38.459V45.1035H193.773V38.459H174.297ZM174.297 29.4238V35.998H193.773V29.4238H174.297ZM174.297 20.3887V26.9629H193.773V20.3887H174.297Z" fill="#FFF8E0"/>
<g clip-path="url(#clip0_504_10)">
<path d="M23.9821 54.7259C21.4626 54.7259 18.9678 54.2297 16.6401 53.2655C14.3123 52.3013 12.1973 50.8881 10.4158 49.1066C8.6342 47.325 7.22099 45.21 6.25681 42.8823C5.29264 40.5546 4.79639 38.0597 4.79639 35.5402C4.79639 33.0207 5.29264 30.5259 6.25681 28.1982C7.22099 25.8704 8.6342 23.7554 10.4158 21.9739C12.1973 20.1923 14.3123 18.7791 16.6401 17.8149C18.9678 16.8507 21.4626 16.3545 23.9821 16.3545C29.0705 16.3545 33.9504 18.3758 37.5485 21.9739C41.1465 25.5719 43.1678 30.4518 43.1678 35.5402C43.1678 40.6286 41.1465 45.5086 37.5485 49.1066C33.9504 52.7046 29.0705 54.7259 23.9821 54.7259V54.7259ZM23.9821 50.8888C28.0528 50.8888 31.9568 49.2717 34.8352 46.3933C37.7136 43.5149 39.3307 39.6109 39.3307 35.5402C39.3307 31.4695 37.7136 27.5655 34.8352 24.6871C31.9568 21.8087 28.0528 20.1916 23.9821 20.1916C19.9114 20.1916 16.0074 21.8087 13.129 24.6871C10.2506 27.5655 8.63353 31.4695 8.63353 35.5402C8.63353 39.6109 10.2506 43.5149 13.129 46.3933C16.0074 49.2717 19.9114 50.8888 23.9821 50.8888V50.8888Z" fill="#FFF8E0"/>
<path d="M15.8534 17.5993C15.8534 18.7016 16.0705 19.7931 16.4923 20.8114C16.9142 21.8298 17.5324 22.7551 18.3119 23.5346C19.0913 24.314 20.0166 24.9323 21.035 25.3541C22.0534 25.7759 23.1449 25.993 24.2471 25.993C25.3494 25.993 26.4409 25.7759 27.4593 25.3541C28.4777 24.9323 29.403 24.314 30.1824 23.5346C30.9619 22.7551 31.5801 21.8298 32.002 20.8114C32.4238 19.7931 32.6409 18.7016 32.6409 17.5993C32.6409 16.497 32.4238 15.4055 32.002 14.3871C31.5801 13.3688 30.9619 12.4434 30.1824 11.664C29.403 10.8846 28.4777 10.2663 27.4593 9.84447C26.4409 9.42265 25.3494 9.20554 24.2471 9.20554C23.1449 9.20554 22.0534 9.42265 21.035 9.84447C20.0166 10.2663 19.0913 10.8846 18.3119 11.664C17.5324 12.4434 16.9142 13.3688 16.4923 14.3871C16.0705 15.4055 15.8534 16.497 15.8534 17.5993V17.5993Z" fill="#FFF8E0"/>
<path d="M31.1768 39.1376C31.1768 41.3637 32.0611 43.4987 33.6352 45.0728C35.2094 46.647 37.3443 47.5313 39.5705 47.5313C41.7967 47.5313 43.9317 46.647 45.5058 45.0728C47.0799 43.4987 47.9643 41.3637 47.9643 39.1376C47.9643 38.0353 47.7472 36.9438 47.3253 35.9254C46.9035 34.907 46.2852 33.9817 45.5058 33.2023C44.7264 32.4228 43.801 31.8046 42.7827 31.3827C41.7643 30.9609 40.6728 30.7438 39.5705 30.7438C38.4682 30.7438 37.3767 30.9609 36.3584 31.3827C35.34 31.8046 34.4147 32.4228 33.6352 33.2023C32.8558 33.9817 32.2375 34.907 31.8157 35.9254C31.3939 36.9438 31.1768 38.0353 31.1768 39.1376V39.1376Z" fill="#FFF8E0"/>
<path d="M0 39.1376C0 41.3637 0.884339 43.4987 2.45847 45.0728C4.03261 46.647 6.16759 47.5313 8.39375 47.5313C10.6199 47.5313 12.7549 46.647 14.329 45.0728C15.9032 43.4987 16.7875 41.3637 16.7875 39.1376C16.7875 36.9114 15.9032 34.7764 14.329 33.2023C12.7549 31.6281 10.6199 30.7438 8.39375 30.7438C6.16759 30.7438 4.03261 31.6281 2.45847 33.2023C0.884339 34.7764 0 36.9114 0 39.1376H0Z" fill="#FFF8E0"/>
</g>
<defs>
<clipPath id="clip0_504_10">
<rect width="48" height="48" fill="white" transform="translate(0 8)"/>
</clipPath>
</defs>
</svg>
