<svg width="60" height="79" viewBox="0 0 60 79" fill="none" xmlns="http://www.w3.org/2000/svg">
<path d="M15.8906 60.376C15.5078 60.8499 15.0703 61.4333 14.5781 62.126C14.2409 61.8617 13.915 61.5882 13.6006 61.3057C13.4775 64.2178 13.3818 65.9769 13.3135 66.583C13.2451 67.1891 13.0195 67.6562 12.6367 67.9844C12.2539 68.3171 11.7184 68.4834 11.0303 68.4834C10.0915 68.4834 9.20508 68.4697 8.37109 68.4424C8.28906 67.6859 8.19336 66.9977 8.08398 66.3779C9.26888 66.4782 10.1257 66.5283 10.6543 66.5283C10.9688 66.5283 11.167 66.3893 11.249 66.1113C11.3356 65.8288 11.4062 64.6826 11.4609 62.6729H8.08398C8.00651 63.9535 7.82194 64.9355 7.53027 65.6191C7.24316 66.3027 6.78971 66.9202 6.16992 67.4717C5.55469 68.0231 4.77995 68.5016 3.8457 68.9072C3.2806 68.1507 2.80664 67.5719 2.42383 67.1709C3.23503 66.8473 3.90267 66.4896 4.42676 66.0977C4.9554 65.7012 5.33366 65.2819 5.56152 64.8398C5.79395 64.3932 5.94889 63.6709 6.02637 62.6729H4.07812V61.5859C3.85026 61.7591 3.61784 61.9255 3.38086 62.085C2.96159 61.4925 2.54688 60.9775 2.13672 60.54C4.19661 59.0908 5.75065 57.3682 6.79883 55.3721L8.63086 56.165C7.67839 57.9606 6.4821 59.501 5.04199 60.7861H13.04C11.641 59.4372 10.4857 57.9333 9.57422 56.2744L11.2695 55.3994C12.4362 57.4137 13.9766 59.0726 15.8906 60.376ZM16.2051 63.5889C17.0208 62.249 17.5928 60.9821 17.9209 59.7881H16.3281V57.9971H17.9414V55.4814H19.7734V57.9971H21.168V59.7881H19.7734V61.0459C20.5482 61.4378 21.1816 61.7796 21.6738 62.0713L20.7715 63.6572C20.4753 63.4385 20.1426 63.2106 19.7734 62.9736V68.7979H17.9414V63.582C17.5996 64.3978 17.1849 65.2021 16.6973 65.9951C16.5605 65.2113 16.3965 64.4092 16.2051 63.5889ZM29.043 55.6455L29.6445 57.4775C28.1953 57.7327 26.2038 57.9606 23.6699 58.1611V60.2393H29.7949V62.0439H27.5391V68.7295H25.6797V62.0439H23.6699C23.6699 64.9378 23.0501 67.2165 21.8105 68.8799C21.3366 68.2874 20.849 67.7633 20.3477 67.3076C21.3229 66.0589 21.8105 64.3408 21.8105 62.1533V56.3701C24.873 56.2152 27.2839 55.9736 29.043 55.6455ZM35.3594 55.9053H43.6172V57.5869H40.001L39.7549 58.8994H43.084V65.1475H41.2246V60.54H37.082V65.2432H35.2227V58.8994H37.6973L37.9434 57.5869H35.3594V55.9053ZM30.5742 67.2393L30.1914 65.1885L31.5586 64.8877V58.1338H30.3281V56.2607H34.7578V58.1338H33.4316V64.4297C33.8919 64.3112 34.3568 64.1859 34.8262 64.0537C34.7988 64.7008 34.7852 65.389 34.7852 66.1182C33.2539 66.4827 31.8503 66.8564 30.5742 67.2393ZM38.3672 61.3877H40.1719C40.1628 62.5908 39.9964 63.6549 39.6729 64.5801C41.0537 65.4414 42.446 66.3825 43.8496 67.4033L42.6875 68.8799C41.7122 68.0732 40.4681 67.1322 38.9551 66.0566C38.1257 67.3008 36.7949 68.2601 34.9629 68.9346C34.6257 68.2327 34.2793 67.613 33.9238 67.0752C35.6146 66.6696 36.7767 66.0293 37.4102 65.1543C38.0482 64.2793 38.3672 63.0238 38.3672 61.3877ZM45.6133 68.8252V56.1924H56.3867V68.8252H54.4453V67.8955H47.5547V68.8252H45.6133ZM54.4453 57.9971H47.5547V59.501H54.4453V57.9971ZM47.5547 62.7549H54.4453V61.251H47.5547V62.7549ZM47.5547 66.0908H54.4453V64.5049H47.5547V66.0908Z" fill="#FF6B00"/>
<g clip-path="url(#clip0_504_7)">
<path d="M29.9821 46.7259C27.4626 46.7259 24.9678 46.2297 22.6401 45.2655C20.3123 44.3013 18.1973 42.8881 16.4158 41.1066C14.6342 39.325 13.221 37.21 12.2568 34.8823C11.2926 32.5546 10.7964 30.0597 10.7964 27.5402C10.7964 25.0207 11.2926 22.5259 12.2568 20.1982C13.221 17.8704 14.6342 15.7554 16.4158 13.9739C18.1973 12.1923 20.3123 10.7791 22.6401 9.81492C24.9678 8.85075 27.4626 8.35449 29.9821 8.35449C35.0705 8.35449 39.9504 10.3758 43.5485 13.9739C47.1465 17.5719 49.1678 22.4518 49.1678 27.5402C49.1678 32.6286 47.1465 37.5086 43.5485 41.1066C39.9504 44.7046 35.0705 46.7259 29.9821 46.7259V46.7259ZM29.9821 42.8888C34.0528 42.8888 37.9568 41.2717 40.8352 38.3933C43.7136 35.5149 45.3307 31.6109 45.3307 27.5402C45.3307 23.4695 43.7136 19.5655 40.8352 16.6871C37.9568 13.8087 34.0528 12.1916 29.9821 12.1916C25.9114 12.1916 22.0074 13.8087 19.129 16.6871C16.2506 19.5655 14.6335 23.4695 14.6335 27.5402C14.6335 31.6109 16.2506 35.5149 19.129 38.3933C22.0074 41.2717 25.9114 42.8888 29.9821 42.8888V42.8888Z" fill="#FF6B00"/>
<path d="M21.8534 9.59932C21.8534 10.7016 22.0705 11.7931 22.4923 12.8115C22.9142 13.8299 23.5324 14.7552 24.3119 15.5346C25.0913 16.314 26.0166 16.9323 27.035 17.3541C28.0534 17.776 29.1449 17.9931 30.2471 17.9931C31.3494 17.9931 32.4409 17.776 33.4593 17.3541C34.4777 16.9323 35.403 16.314 36.1824 15.5346C36.9619 14.7552 37.5801 13.8299 38.002 12.8115C38.4238 11.7931 38.6409 10.7016 38.6409 9.59932C38.6409 8.49704 38.4238 7.40555 38.002 6.38717C37.5801 5.36879 36.9619 4.44347 36.1824 3.66404C35.403 2.88461 34.4777 2.26633 33.4593 1.8445C32.4409 1.42268 31.3494 1.20557 30.2471 1.20557C29.1449 1.20557 28.0534 1.42268 27.035 1.8445C26.0166 2.26633 25.0913 2.88461 24.3119 3.66404C23.5324 4.44347 22.9142 5.36879 22.4923 6.38717C22.0705 7.40555 21.8534 8.49704 21.8534 9.59932V9.59932Z" fill="#FF6B00"/>
<path d="M37.1768 31.1375C37.1768 33.3637 38.0611 35.4987 39.6352 37.0728C41.2094 38.6469 43.3443 39.5313 45.5705 39.5313C47.7967 39.5313 49.9317 38.6469 51.5058 37.0728C53.0799 35.4987 53.9643 33.3637 53.9643 31.1375C53.9643 30.0352 53.7472 28.9438 53.3253 27.9254C52.9035 26.907 52.2852 25.9817 51.5058 25.2022C50.7264 24.4228 49.801 23.8045 48.7827 23.3827C47.7643 22.9609 46.6728 22.7438 45.5705 22.7438C44.4682 22.7438 43.3767 22.9609 42.3584 23.3827C41.34 23.8045 40.4147 24.4228 39.6352 25.2022C38.8558 25.9817 38.2375 26.907 37.8157 27.9254C37.3939 28.9438 37.1768 30.0352 37.1768 31.1375V31.1375Z" fill="#FF6B00"/>
<path d="M6 31.1375C6 33.3637 6.88434 35.4987 8.45847 37.0728C10.0326 38.6469 12.1676 39.5313 14.3938 39.5313C16.6199 39.5313 18.7549 38.6469 20.329 37.0728C21.9032 35.4987 22.7875 33.3637 22.7875 31.1375C22.7875 28.9114 21.9032 26.7764 20.329 25.2022C18.7549 23.6281 16.6199 22.7438 14.3938 22.7438C12.1676 22.7438 10.0326 23.6281 8.45847 25.2022C6.88434 26.7764 6 28.9114 6 31.1375H6Z" fill="#FF6B00"/>
</g>
<defs>
<clipPath id="clip0_504_7">
<rect width="48" height="48" fill="white" transform="translate(6)"/>
</clipPath>
</defs>
</svg>
