<svg width="60" height="86" viewBox="0 0 60 86" fill="none" xmlns="http://www.w3.org/2000/svg">
<path d="M43.0944 51.6761H17.1031C16.3445 51.6761 15.5934 51.5267 14.8925 51.2364C14.1917 50.9461 13.5549 50.5206 13.0185 49.9843C12.4821 49.4479 12.0566 48.8111 11.7663 48.1102C11.4761 47.4094 11.3267 46.6583 11.3267 45.8997V14.1311C11.3267 13.3725 11.4761 12.6213 11.7663 11.9205C12.0566 11.2197 12.4821 10.5829 13.0185 10.0465C13.5549 9.51011 14.1917 9.08462 14.8925 8.79433C15.5934 8.50404 16.3445 8.35464 17.1031 8.35465H35.6769C36.1775 8.26054 36.708 8.3782 37.0945 8.7648L48.3603 20.0314C48.611 20.2813 48.7568 20.5945 48.8039 20.9195C48.8482 21.0553 48.869 21.201 48.869 21.3513V45.8998C48.8694 46.6583 48.7203 47.4094 48.4302 48.1103C48.1402 48.8112 47.7149 49.448 47.1786 49.9844C46.6423 50.5209 46.0056 50.9464 45.3048 51.2366C44.604 51.5269 43.8529 51.6762 43.0944 51.6761ZM37.3181 13.4964V19.9074H43.729L37.3181 13.4965V13.4964ZM45.9831 22.7951H35.8751C35.4921 22.7951 35.1247 22.643 34.8538 22.3723C34.5829 22.1015 34.4306 21.7343 34.4304 21.3513V11.2424H17.103C16.7237 11.2424 16.3481 11.3171 15.9977 11.4623C15.6473 11.6075 15.3289 11.8203 15.0608 12.0885C14.7926 12.3568 14.5799 12.6752 14.4349 13.0257C14.2898 13.3761 14.2152 13.7518 14.2153 14.1311V45.8997C14.2153 46.2789 14.29 46.6544 14.4352 47.0047C14.5803 47.355 14.793 47.6732 15.0612 47.9413C15.3293 48.2094 15.6477 48.422 15.998 48.5671C16.3484 48.7121 16.7239 48.7867 17.1031 48.7866H43.0935C43.4727 48.7867 43.8483 48.7121 44.1987 48.5671C44.5491 48.4221 44.8675 48.2095 45.1357 47.9414C45.404 47.6733 45.6168 47.3551 45.762 47.0047C45.9072 46.6544 45.9821 46.2789 45.9822 45.8997V22.7951H45.9831V22.7951Z" fill="#FFEA7A"/>
<path d="M17.2246 62.3037C17.3887 62.7959 17.5368 63.2744 17.6689 63.7393H22.9941V66.8018H21.0801V65.4619H11.9609V66.8018H10.0469V63.7393H15.5293C15.4199 63.3656 15.2969 62.9691 15.1602 62.5498L17.2246 62.3037ZM18.209 65.7764C20.0684 66.6423 21.7637 67.5036 23.2949 68.3604L22.3652 70.0146C20.7337 69.0212 19.0065 68.0915 17.1836 67.2256L18.209 65.7764ZM9.86914 73.46H15.5156V71.0674H11.8789V69.625C11.4824 69.8346 11.0814 70.0374 10.6758 70.2334C10.3568 69.6227 10.0332 69.0713 9.70508 68.5791C11.6191 67.7952 13.2279 66.8747 14.5312 65.8174L15.8027 67.1436C14.7409 67.9365 13.6221 68.6611 12.4463 69.3174H21.1211V71.0674H17.4844V73.46H23.1309V75.21H9.86914V73.46ZM28.668 62.29L31.0195 62.6045C30.8464 63.0557 30.6481 63.5524 30.4248 64.0947H36.1602V75.7432H34.0547V74.8955H26.8633V75.7705H24.7578V64.0947H28.2168C28.4355 63.2926 28.5859 62.6911 28.668 62.29ZM34.0547 66.0361H26.8633V68.5518H34.0547V66.0361ZM26.8633 72.9541H34.0547V70.4385H26.8633V72.9541ZM39.1953 72.4346V66.0088H42.5928C42.8115 65.4938 42.9938 65.0062 43.1396 64.5459H37.9785V62.9053H51.0215V64.5459H45.3682C45.1449 65.0563 44.917 65.5439 44.6846 66.0088H49.8594V72.3525H47.9727V67.6494H41.082V72.4346H39.1953ZM43.6523 68.4014H45.5664V68.7705C45.5664 69.8551 45.4525 70.7757 45.2246 71.5322C47.5215 72.471 49.5176 73.3643 51.2129 74.2119L50.1602 75.8936C48.5013 74.9593 46.6237 74.0046 44.5273 73.0293C43.543 74.4193 41.7201 75.3786 39.0586 75.9072C38.694 75.2419 38.2474 74.5719 37.7188 73.8975C40.0065 73.6696 41.5674 73.1842 42.4014 72.4414C43.2354 71.694 43.6523 70.4795 43.6523 68.7979V68.4014Z" fill="#FFEA7A"/>
</svg>
