<svg width="60" height="86" viewBox="0 0 60 86" fill="none" xmlns="http://www.w3.org/2000/svg">
<path d="M43.0943 51.6761H17.1029C16.3444 51.6761 15.5932 51.5267 14.8924 51.2364C14.1916 50.9461 13.5548 50.5206 13.0184 49.9842C12.482 49.4478 12.0565 48.811 11.7662 48.1102C11.4759 47.4094 11.3265 46.6582 11.3265 45.8997V14.131C11.3265 13.3725 11.4759 12.6213 11.7662 11.9205C12.0565 11.2196 12.482 10.5829 13.0184 10.0465C13.5548 9.51008 14.1916 9.08459 14.8924 8.7943C15.5932 8.50401 16.3444 8.35461 17.1029 8.35461H35.6768C36.1774 8.26051 36.7078 8.37817 37.0944 8.76477L48.3602 20.0314C48.6109 20.2813 48.7566 20.5945 48.8037 20.9195C48.8481 21.0552 48.8689 21.201 48.8689 21.3513V45.8997C48.8693 46.6582 48.7201 47.4094 48.4301 48.1103C48.14 48.8111 47.7147 49.448 47.1785 49.9844C46.6422 50.5208 46.0055 50.9463 45.3047 51.2366C44.6039 51.5269 43.8528 51.6762 43.0943 51.6761ZM37.318 13.4964V19.9074H43.7289L37.318 13.4965V13.4964ZM45.983 22.7951H35.875C35.492 22.7951 35.1246 22.643 34.8537 22.3723C34.5828 22.1015 34.4305 21.7343 34.4302 21.3512V11.2423H17.1029C16.7236 11.2424 16.348 11.3171 15.9976 11.4623C15.6472 11.6075 15.3288 11.8202 15.0607 12.0885C14.7925 12.3567 14.5798 12.6752 14.4348 13.0257C14.2897 13.3761 14.2151 13.7517 14.2152 14.131V45.8997C14.2152 46.2789 14.2899 46.6543 14.435 47.0046C14.5802 47.3549 14.7929 47.6732 15.0611 47.9413C15.3292 48.2094 15.6476 48.422 15.9979 48.567C16.3483 48.7121 16.7238 48.7866 17.1029 48.7865H43.0934C43.4726 48.7867 43.8481 48.7121 44.1986 48.5671C44.549 48.4221 44.8674 48.2094 45.1356 47.9414C45.4038 47.6733 45.6167 47.355 45.7619 47.0047C45.9071 46.6544 45.9819 46.2789 45.982 45.8997V22.7951H45.983Z" fill="#FFF8E0"/>
<path d="M17.2246 62.3037C17.3887 62.7959 17.5368 63.2744 17.6689 63.7393H22.9941V66.8018H21.0801V65.4619H11.9609V66.8018H10.0469V63.7393H15.5293C15.4199 63.3656 15.2969 62.9691 15.1602 62.5498L17.2246 62.3037ZM18.209 65.7764C20.0684 66.6423 21.7637 67.5036 23.2949 68.3604L22.3652 70.0146C20.7337 69.0212 19.0065 68.0915 17.1836 67.2256L18.209 65.7764ZM9.86914 73.46H15.5156V71.0674H11.8789V69.625C11.4824 69.8346 11.0814 70.0374 10.6758 70.2334C10.3568 69.6227 10.0332 69.0713 9.70508 68.5791C11.6191 67.7952 13.2279 66.8747 14.5312 65.8174L15.8027 67.1436C14.7409 67.9365 13.6221 68.6611 12.4463 69.3174H21.1211V71.0674H17.4844V73.46H23.1309V75.21H9.86914V73.46ZM28.668 62.29L31.0195 62.6045C30.8464 63.0557 30.6481 63.5524 30.4248 64.0947H36.1602V75.7432H34.0547V74.8955H26.8633V75.7705H24.7578V64.0947H28.2168C28.4355 63.2926 28.5859 62.6911 28.668 62.29ZM34.0547 66.0361H26.8633V68.5518H34.0547V66.0361ZM26.8633 72.9541H34.0547V70.4385H26.8633V72.9541ZM39.1953 72.4346V66.0088H42.5928C42.8115 65.4938 42.9938 65.0062 43.1396 64.5459H37.9785V62.9053H51.0215V64.5459H45.3682C45.1449 65.0563 44.917 65.5439 44.6846 66.0088H49.8594V72.3525H47.9727V67.6494H41.082V72.4346H39.1953ZM43.6523 68.4014H45.5664V68.7705C45.5664 69.8551 45.4525 70.7757 45.2246 71.5322C47.5215 72.471 49.5176 73.3643 51.2129 74.2119L50.1602 75.8936C48.5013 74.9593 46.6237 74.0046 44.5273 73.0293C43.543 74.4193 41.7201 75.3786 39.0586 75.9072C38.694 75.2419 38.2474 74.5719 37.7188 73.8975C40.0065 73.6696 41.5674 73.1842 42.4014 72.4414C43.2354 71.694 43.6523 70.4795 43.6523 68.7979V68.4014Z" fill="#FFF8E0"/>
</svg>
