<svg width="60" height="81" viewBox="0 0 60 81" fill="none" xmlns="http://www.w3.org/2000/svg">
<path d="M13.8535 64.6182C14.3822 64.8643 14.929 65.0921 15.4941 65.3018C15.3346 66.3363 15.1911 66.9971 15.0635 67.2842C14.9404 67.5667 14.7399 67.7832 14.4619 67.9336C14.1839 68.084 13.8353 68.1592 13.416 68.1592H12.459C11.3743 68.1592 10.832 67.5531 10.832 66.3408V64.1533H9.7998C9.74056 65.3428 9.51953 66.2269 9.13672 66.8057C8.75391 67.3799 8.18424 67.8994 7.42773 68.3643C7.09961 67.9541 6.68945 67.5029 6.19727 67.0107C6.62565 66.7555 7.02441 66.4251 7.39355 66.0195C7.7627 65.6094 7.97689 64.9873 8.03613 64.1533H6.08789V62.54H10.0801V61.0225H8.21387C8.04069 61.4645 7.86979 61.8656 7.70117 62.2256C7.25456 61.9977 6.74414 61.7516 6.16992 61.4873C6.68945 60.43 7.15885 59.1813 7.57812 57.7412L9.17773 58.2607L8.80176 59.4092H10.0801V57.3721H11.8984V59.4092H15.043V61.0225H11.8984V62.54H15.5488V64.1533H12.5957V65.958C12.5957 66.3317 12.7324 66.5186 13.0059 66.5186H13.1699C13.4206 66.5186 13.5801 66.432 13.6484 66.2588C13.7168 66.0811 13.7852 65.5342 13.8535 64.6182ZM4.24219 57.5635C4.92578 58.4567 5.54102 59.2952 6.08789 60.0791L4.48828 61.1592C3.93229 60.2113 3.36263 59.3135 2.7793 58.4658L4.24219 57.5635ZM15.7676 68.7334C15.5306 69.4626 15.3392 70.0732 15.1934 70.5654L8.95898 70.5244C7.00391 70.5244 5.58659 70.0915 4.70703 69.2256L3.12109 70.8389L2.3418 68.7607C2.83398 68.3506 3.28971 67.9609 3.70898 67.5918V64.1396H2.4375V62.4033H5.5V67.6055C6.21094 68.3939 7.32747 68.7881 8.84961 68.7881L11.6455 68.8018C12.7165 68.8018 14.0905 68.779 15.7676 68.7334ZM16.3008 59.8057H17.7773V57.4951H19.5684V59.8057H20.8398V61.5146H19.5684V63.6406L20.8945 63.374C20.7852 64.1396 20.7259 64.7549 20.7168 65.2197L19.5684 65.4316V68.9521C19.5684 69.5081 19.459 69.9297 19.2402 70.2168C19.0215 70.5039 18.6979 70.6566 18.2695 70.6748L16.6562 70.7432C16.5651 70.2145 16.4421 69.6084 16.2871 68.9248C16.6335 68.9521 16.9798 68.9658 17.3262 68.9658C17.627 68.9658 17.7773 68.7699 17.7773 68.3779V65.7871L16.3418 66.0947L16.2324 64.1396C16.6927 64.0941 17.2077 64.0303 17.7773 63.9482V61.5146H16.3008V59.8057ZM28.9609 57.9189V59.4365C28.373 60.2796 27.6439 61.0247 26.7734 61.6719C27.6803 61.9909 28.6829 62.1982 29.7812 62.2939C29.4896 62.9137 29.248 63.4652 29.0566 63.9482C27.5527 63.6839 26.2334 63.2692 25.0986 62.7041C23.9958 63.2646 22.7311 63.7113 21.3047 64.0439C21.1133 63.5426 20.8717 63.014 20.5801 62.458C21.6602 62.2393 22.6172 61.9749 23.4512 61.665C22.8223 61.1729 22.2754 60.6123 21.8105 59.9834L22.7744 59.4365H21.1406V57.9189H28.9609ZM25.1123 60.8926C25.8506 60.4642 26.4316 59.9788 26.8555 59.4365H23.3145C23.8431 60.0062 24.4424 60.4915 25.1123 60.8926ZM20.3066 67.0928H24.1484V66.1084H20.9902V64.5771H24.1484V63.6748H25.9941V64.5771H29.1523V66.1084H25.9941V67.0928H29.6582V68.624H25.9941V70.8389H24.1484V68.624H20.3066V67.0928ZM30.3691 59.4775H36.084C35.9427 59.0127 35.7513 58.4385 35.5098 57.7549L37.6016 57.3311C37.9434 58.238 38.2031 58.9535 38.3809 59.4775H43.5898V61.3232H41.5596C40.8714 63.3923 39.8802 65.14 38.5859 66.5664C39.9896 67.5371 41.7214 68.2777 43.7812 68.7881C43.0247 69.7087 42.5234 70.3786 42.2773 70.7979C40.1947 70.1006 38.4264 69.18 36.9727 68.0361C35.5098 69.139 33.7142 70.0869 31.5859 70.8799C31.0938 70.0869 30.638 69.4261 30.2188 68.8975C32.265 68.2594 33.9785 67.471 35.3594 66.5322C34.0469 65.0693 33.1172 63.333 32.5703 61.3232H30.3691V59.4775ZM39.2354 61.3232H34.6826C35.152 62.818 35.9131 64.11 36.9658 65.1992C38.0277 64.1055 38.7842 62.8135 39.2354 61.3232ZM48.252 64.7139H52.6133V62.1025H50.7334C50.4691 62.9639 50.1888 63.734 49.8926 64.4131C49.3913 64.1396 48.8216 63.8708 48.1836 63.6064C48.7943 62.139 49.3138 60.3617 49.7422 58.2744L51.5879 58.7256C51.4694 59.2907 51.3464 59.8285 51.2188 60.3389H52.6133V57.3857H54.5957V60.3389H57.4531V62.1025H54.5957V64.7139H57.8223V66.4775H54.5957V70.8662H52.6133V66.4775H48.252V64.7139ZM46.7754 57.3994L48.6621 57.9463C48.334 58.9215 47.9967 59.8398 47.6504 60.7012V70.8525H45.8184V64.625C45.4492 65.2949 45.071 65.9124 44.6836 66.4775C44.5195 65.484 44.36 64.6318 44.2051 63.9209C45.1621 62.1162 46.0189 59.9424 46.7754 57.3994Z" fill="#FFF8E0"/>
<path d="M52.5 27.42H48.69V20.19C48.69 18.36 47.19 16.86 45.36 16.86H28.44C27.93 16.86 27.45 16.65 27.12 16.32C26.76 15.96 26.58 15.48 26.58 15V15.03C26.58 14.16 26.22 13.29 25.62 12.69C24.99 12.06 24.15 11.7 23.28 11.7H11.34C10.47 11.7 9.60004 12.06 9.00004 12.66C8.37004 13.29 8.04004 14.13 8.04004 15V43.1399C8.04004 44.97 9.54004 46.47 11.37 46.47H45.42C47.25 46.47 49.32 44.97 49.98 43.1399L54.6 30.75C55.26 28.92 54.33 27.42 52.5 27.42ZM23.13 15.15C23.22 18.03 25.56 20.34 28.44 20.34H45.24V27.45H18.45C16.62 27.45 14.55 28.95 13.89 30.78L11.46 37.26V15.15H23.13Z" fill="#FFF8E0"/>
</svg>
