<svg width="60" height="83" viewBox="0 0 60 83" fill="none" xmlns="http://www.w3.org/2000/svg">
<path d="M22.125 66.6045H23.875V67.5342H28.3047V70.4189C28.3047 70.9795 28.1315 71.4056 27.7852 71.6973C27.4434 71.9889 26.9307 72.1348 26.2471 72.1348C25.5635 72.1348 25.0508 72.1279 24.709 72.1143C24.6361 71.5036 24.5404 70.9567 24.4219 70.4736C24.9505 70.5648 25.3971 70.6104 25.7617 70.6104C26.3086 70.6104 26.582 70.3278 26.582 69.7627V68.9834H23.875V72.9209H22.125V68.9834H19.7461V72.1143H18.0234V68.1631C17.6771 67.8669 17.3307 67.598 16.9844 67.3564C17.554 66.9417 18.0234 66.4495 18.3926 65.8799H16.4922V64.5674H19.0215C19.1035 64.3213 19.1719 64.0661 19.2266 63.8018H17.2441V62.5439H19.3838C19.3975 62.3617 19.4043 62.111 19.4043 61.792H16.9434V60.4795H19.4043V59.3857H21.127V60.4795H23.3965V61.792H21.127C21.127 61.9287 21.1224 62.1794 21.1133 62.5439H23V63.8018H21.0039C20.9674 64.0661 20.9196 64.3213 20.8604 64.5674H23.5059V65.8799H20.457C20.2064 66.4906 19.8874 67.042 19.5 67.5342H22.125V66.6045ZM28.0586 62.79C29.0065 63.3369 29.4805 64.0342 29.4805 64.8818C29.4805 65.3421 29.2891 65.7318 28.9062 66.0508C28.5234 66.3698 27.5892 66.4906 26.1035 66.4131C26.0124 65.693 25.9167 65.137 25.8164 64.7451C26.2995 64.8271 26.6868 64.8682 26.9785 64.8682C27.4069 64.8682 27.6211 64.7178 27.6211 64.417C27.5026 63.8792 26.9876 63.4417 26.0762 63.1045C26.5592 62.3844 26.9421 61.792 27.2246 61.3271H25.6797V66.9189H23.957V59.9873H29.125V61.2178L28.0586 62.79ZM39.2559 72.6475C39.1647 72.0277 39.0326 71.3805 38.8594 70.7061C39.543 70.7425 40.0124 70.7607 40.2676 70.7607C40.5319 70.7607 40.7415 70.6924 40.8965 70.5557C41.0514 70.4144 41.1494 70.2139 41.1904 69.9541C41.236 69.6943 41.277 68.9902 41.3135 67.8418C41.3499 66.6888 41.3659 65.2327 41.3613 63.4736H39.7754C39.7207 66.5589 39.4199 68.7692 38.873 70.1045C38.3307 71.4398 37.752 72.3786 37.1367 72.9209C36.722 72.5153 36.2708 72.1302 35.7832 71.7656C33.7096 71.9525 31.9277 72.1325 30.4375 72.3057L30.2051 70.4736C30.4102 70.4645 30.6152 70.4531 30.8203 70.4395V60.0283H36.3027V70.0088C36.4805 69.9906 36.6536 69.9746 36.8223 69.9609C37.5605 68.571 37.9411 66.4085 37.9639 63.4736H36.7266V61.6689H37.9912C37.9958 60.9762 37.998 60.2106 37.998 59.3721H39.8164C39.8164 60.2197 39.8118 60.9854 39.8027 61.6689H43.207L43.0635 69.3047C43.0407 70.2116 42.9837 70.8245 42.8926 71.1436C42.8014 71.4671 42.6488 71.7451 42.4346 71.9775C42.2204 72.21 41.9583 72.3717 41.6484 72.4629C41.3431 72.554 40.5456 72.6156 39.2559 72.6475ZM34.5801 61.6143H32.543V63.501H34.5801V61.6143ZM32.543 66.8369H34.5801V64.9502H32.543V66.8369ZM34.5801 70.1729V68.2861H32.543V70.3232L34.5801 70.1729Z" fill="#FFF8E0"/>
<path d="M48.5899 4.26296V45.962H10.0857V3.08696H40.9067V32.6634H20.7089C18.4059 32.6634 16.5439 34.5254 16.5439 36.8284V36.9558C16.5439 39.2588 18.4059 41.1208 20.7089 41.1208H42.0827C42.7589 41.1208 43.3371 40.5916 43.3469 39.9154C43.3567 39.2294 42.8079 38.6708 42.1219 38.6708H20.7089C19.7583 38.6708 18.9939 37.9064 18.9939 36.9558V36.8284C18.9939 35.8778 19.7583 35.1134 20.7089 35.1134H43.3469V3.03796C43.3469 1.71496 42.2689 0.636963 40.9459 0.636963H10.0367C8.71374 0.636963 7.63574 1.71496 7.63574 3.03796V46.011C7.63574 47.334 8.71374 48.412 10.0367 48.412H48.6389C49.9619 48.412 51.0399 47.334 51.0399 46.011V4.26296C51.0399 3.58676 50.4911 3.03796 49.8149 3.03796C49.1387 3.03796 48.5899 3.58676 48.5899 4.26296Z" fill="#FFF8E0"/>
</svg>
