<svg width="45" height="45" viewBox="0 0 45 45" fill="none" xmlns="http://www.w3.org/2000/svg">
<path d="M42.1752 0H12.9294C12.184 0 11.4691 0.296131 10.9419 0.823248C10.4148 1.35036 10.1187 2.06529 10.1187 2.81074V8.43223H2.82481C2.07936 8.43223 1.36443 8.72836 0.837316 9.25548C0.3102 9.78259 0.0140686 10.4975 0.0140686 11.243V42.1611C0.0140686 42.9066 0.3102 43.6215 0.837316 44.1486C1.36443 44.6758 2.07936 44.9719 2.82481 44.9719H33.743C34.4884 44.9719 35.2034 44.6758 35.7305 44.1486C36.2576 43.6215 36.5537 42.9066 36.5537 42.1611V34.8251H42.1752C42.9207 34.8251 43.6356 34.529 44.1627 34.0019C44.6898 33.4747 44.986 32.7598 44.986 32.0144V2.81074C44.986 2.06529 44.6898 1.35036 44.1627 0.823248C43.6356 0.296131 42.9207 0 42.1752 0V0ZM33.743 32.0144V42.1611H2.82481V11.243H33.743V32.0144ZM42.0628 32.0144H36.5537V11.243C36.5537 10.4975 36.2576 9.78259 35.7305 9.25548C35.2034 8.72836 34.4884 8.43223 33.743 8.43223H12.9294V2.81074H42.1752L42.0628 32.0144Z" fill="white"/>
</svg>
