<svg width="60" height="77" viewBox="0 0 60 77" fill="none" xmlns="http://www.w3.org/2000/svg">
<path d="M17.5312 56.2842H22.0977V55.4639H16.4785V53.9189H29.5215V55.4639H23.9844V56.2842H28.5508V63.0928H26.7188V62.3271H23.957C23.8932 63.0609 23.7223 63.6784 23.4443 64.1797C25.0713 64.5579 27.1745 64.7699 29.7539 64.8154L28.7012 66.6885C25.7389 66.5563 23.4854 66.1849 21.9404 65.5742C20.9652 66.0938 19.4863 66.5335 17.5039 66.8936C17.194 66.4105 16.7611 65.8089 16.2051 65.0889C17.8594 64.9339 19.1195 64.7288 19.9854 64.4736C19.3337 64.0225 18.7617 63.5394 18.2695 63.0244L19.2744 62.3271H17.5312V56.2842ZM26.7188 57.7471H23.9844V58.6357H26.7188V57.7471ZM19.3633 58.6357H22.0977V57.7471H19.3633V58.6357ZM19.3633 60.8643H22.0977V59.9756H19.3633V60.8643ZM26.7188 60.8643V59.9756H23.9844V60.8643H26.7188ZM22.0498 62.3271H19.6846C20.2087 62.8148 20.8376 63.2249 21.5713 63.5576C21.8174 63.2432 21.9769 62.833 22.0498 62.3271ZM42.3594 54.2334V55.6416C41.1471 56.8265 39.6022 57.8701 37.7246 58.7725H39.9668C39.6387 59.1279 39.2969 59.4697 38.9414 59.7979H43.2617V61.1787C40.6458 64.4053 36.64 66.3512 31.2441 67.0166C30.998 66.3695 30.7155 65.7816 30.3965 65.2529C32.2923 65.0889 34.0241 64.7516 35.5918 64.2412C35.2637 63.8219 34.8672 63.3662 34.4023 62.874C33.6003 63.266 32.7572 63.6169 31.873 63.9268C31.5449 63.3525 31.1803 62.7965 30.7793 62.2588C33.623 61.4932 35.9336 60.3356 37.7109 58.7861C35.8516 59.6794 33.6686 60.4313 31.1621 61.042C30.8978 60.3675 30.6107 59.7705 30.3008 59.251C31.8594 59.0049 33.3177 58.6585 34.6758 58.2119C34.3112 57.7926 33.901 57.3597 33.4453 56.9131C32.9076 57.2412 32.3424 57.5557 31.75 57.8564C31.431 57.3551 31.0254 56.8402 30.5332 56.3115C32.3835 55.6279 33.9785 54.6344 35.3184 53.3311H37.5605C37.3145 53.641 37.0547 53.9417 36.7812 54.2334H42.3594ZM34.7852 56.0107C35.3503 56.5212 35.8835 57.0361 36.3848 57.5557C37.4694 57.1273 38.5814 56.5303 39.7207 55.7646H35.0859C34.9857 55.8467 34.8854 55.9287 34.7852 56.0107ZM35.8242 62.1084C36.3529 62.6097 36.8314 63.1064 37.2598 63.5986C38.6087 62.9788 39.7845 62.2223 40.7871 61.3291H37.0273C36.6354 61.6025 36.2344 61.8623 35.8242 62.1084Z" fill="#FFF8E0"/>
<path d="M8.4375 30C8.4375 31.2432 8.93136 32.4355 9.81044 33.3146C10.6895 34.1936 11.8818 34.6875 13.125 34.6875C14.3682 34.6875 15.5605 34.1936 16.4396 33.3146C17.3186 32.4355 17.8125 31.2432 17.8125 30C17.8125 28.7568 17.3186 27.5645 16.4396 26.6854C15.5605 25.8064 14.3682 25.3125 13.125 25.3125C11.8818 25.3125 10.6895 25.8064 9.81044 26.6854C8.93136 27.5645 8.4375 28.7568 8.4375 30ZM25.3125 30C25.3125 31.2432 25.8064 32.4355 26.6854 33.3146C27.5645 34.1936 28.7568 34.6875 30 34.6875C31.2432 34.6875 32.4355 34.1936 33.3146 33.3146C34.1936 32.4355 34.6875 31.2432 34.6875 30C34.6875 28.7568 34.1936 27.5645 33.3146 26.6854C32.4355 25.8064 31.2432 25.3125 30 25.3125C28.7568 25.3125 27.5645 25.8064 26.6854 26.6854C25.8064 27.5645 25.3125 28.7568 25.3125 30ZM42.1875 30C42.1875 31.2432 42.6814 32.4355 43.5604 33.3146C44.4395 34.1936 45.6318 34.6875 46.875 34.6875C48.1182 34.6875 49.3105 34.1936 50.1896 33.3146C51.0686 32.4355 51.5625 31.2432 51.5625 30C51.5625 28.7568 51.0686 27.5645 50.1896 26.6854C49.3105 25.8064 48.1182 25.3125 46.875 25.3125C45.6318 25.3125 44.4395 25.8064 43.5604 26.6854C42.6814 27.5645 42.1875 28.7568 42.1875 30Z" fill="#FFF8E0"/>
</svg>
