<svg width="228" height="64" viewBox="0 0 228 64" fill="none" xmlns="http://www.w3.org/2000/svg">
<path d="M58.6328 47.1426H74.7344V44.541H61.375V42.4668H74.7344V39.5137H65.2422V40.7793H62.7812V27.5605H74.7344V25.0293H58.9141V22.8496H74.7344V20.0898C70.4805 20.2188 66.0742 20.3301 61.5156 20.4238C61.375 19.6738 61.2109 18.877 61.0234 18.0332C72.9062 17.8926 82.5273 17.5762 89.8867 17.084L90.3086 19.4746C86.1367 19.6738 81.7891 19.8555 77.2656 20.0195V22.8496H93.2266V25.0293H77.2656V27.5605H89.3242V40.7441H86.8633V39.5137H77.2656V42.4668H90.6602V44.541H77.2656V47.1426H93.2266V49.3223H58.6328V47.1426ZM77.2656 37.4746H86.8633V34.4512H77.2656V37.4746ZM65.2422 37.4746H74.7344V34.4512H65.2422V37.4746ZM86.8633 29.5996H77.2656V32.5879H86.8633V29.5996ZM65.2422 32.5879H74.7344V29.5996H65.2422V32.5879ZM114.215 19.0176C119.066 18.9707 123.543 18.4902 127.645 17.5762L128.559 20.2832C123.918 20.8926 119.969 21.291 116.711 21.4785V29.6699H129.543V32.0605H124.516V50.4824H121.914V32.0605H116.711V33.7832C116.711 40.9785 114.988 46.5801 111.543 50.5879C110.98 49.8613 110.359 49.1113 109.68 48.3379C112.703 45.0332 114.215 40.1465 114.215 33.6777V19.0176ZM95.4766 34.8027H102.648V31.4629H105.18V34.8027H112.07V37.0527H105.18V46.2285C105.18 48.7129 103.984 49.9551 101.594 49.9551C100.586 49.9551 99.4492 49.9434 98.1836 49.9199C98.0898 49.1465 97.9609 48.2559 97.7969 47.248C99.1562 47.3887 100.223 47.459 100.996 47.459C102.098 47.459 102.648 46.8613 102.648 45.666V37.0527H95.4766V34.8027ZM94.4922 28.2285H100.152C99.1562 26.6465 98.2188 25.2871 97.3398 24.1504L99.2383 22.8145C100.012 23.752 101.008 25.0762 102.227 26.7871L100.24 28.2285H104.881C106.158 26.3887 107.336 24.5723 108.414 22.7793L110.91 24.1855C109.773 25.6504 108.689 26.998 107.658 28.2285H112.984V30.4785H94.4922V28.2285ZM95.6172 20.0723H103.211C102.707 19.1113 102.133 18.0684 101.488 16.9434L103.738 15.8887C104.465 17.084 105.145 18.291 105.777 19.5098L104.6 20.0723H112.07V22.3223H95.6172V20.0723ZM98.1836 38.6348L100.574 39.7598C99.3086 42.4082 98.0547 44.7988 96.8125 46.9316C96.1328 46.5098 95.3594 46.0879 94.4922 45.666C95.6406 43.8848 96.8711 41.541 98.1836 38.6348ZM108.309 38.8105C109.621 40.5918 110.77 42.2324 111.754 43.7324L109.504 45.2793C108.473 43.4746 107.383 41.7754 106.234 40.1816L108.309 38.8105ZM135.062 31.6035H158.441C158.324 35.5879 158.148 39.4785 157.914 43.2754C157.633 47.6582 155.559 49.8379 151.691 49.8145C149.793 49.8379 147.789 49.7793 145.68 49.6387C145.539 48.6543 145.375 47.6582 145.188 46.6504C146.992 46.9082 149.008 47.0488 151.234 47.0723C153.578 47.1191 154.867 45.748 155.102 42.959C155.289 40.4277 155.43 37.5098 155.523 34.2051H144.713C144.432 38.1191 143.617 41.2715 142.27 43.6621C140.488 46.8027 137.5 49.2285 133.305 50.9395C132.695 50.1426 132.027 49.3574 131.301 48.584C135.191 47.1309 137.992 45.0215 139.703 42.2559C140.934 40.1582 141.643 37.4746 141.83 34.2051H135.062V31.6035ZM149.617 16.9785L152.148 15.8887C154.727 22.1699 159.25 26.8691 165.719 29.9863C164.664 31.0879 163.902 31.9785 163.434 32.6582C156.988 28.9316 152.383 23.7051 149.617 16.9785ZM130.281 30.4434C135.109 27.0215 139.234 22.3574 142.656 16.4512L145.152 17.8223C141.59 24.0566 137.312 29.0605 132.32 32.834C131.828 32.1074 131.148 31.3105 130.281 30.4434ZM181.609 19.0176C187.398 18.9238 193.188 18.4199 198.977 17.5059L199.926 20.0371C194.98 20.7637 189.777 21.2441 184.316 21.4785V29.3184H201.473V31.8848H194.863V50.5879H192.156V31.8848H184.316V33.2207C184.316 40.8379 182.383 46.6973 178.516 50.7988C177.93 49.9551 177.32 49.1816 176.688 48.4785C179.969 44.9629 181.609 39.8652 181.609 33.1855V19.0176ZM166.492 38.1777C168.93 34.6152 170.77 30.502 172.012 25.8379H166.984V23.4121H172.082V16.416H174.648V23.4121H179.5V25.8379H174.648V29.8457L175.949 28.8262C178.082 31.334 179.629 33.3379 180.59 34.8379L178.41 36.4551C177.309 34.7207 176.055 32.916 174.648 31.041V50.5879H172.082V32.5176C170.887 36.0332 169.434 38.9629 167.723 41.3066C167.441 40.4863 167.031 39.4434 166.492 38.1777Z" fill="#FFEA7A"/>
<g clip-path="url(#clip0_504_107)">
<path d="M23.9821 54.7259C21.4626 54.7259 18.9678 54.2297 16.6401 53.2655C14.3123 52.3013 12.1973 50.8881 10.4158 49.1066C8.6342 47.325 7.22099 45.21 6.25681 42.8823C5.29264 40.5546 4.79639 38.0597 4.79639 35.5402C4.79639 33.0207 5.29264 30.5259 6.25681 28.1982C7.22099 25.8704 8.6342 23.7554 10.4158 21.9739C12.1973 20.1923 14.3123 18.7791 16.6401 17.8149C18.9678 16.8507 21.4626 16.3545 23.9821 16.3545C29.0705 16.3545 33.9504 18.3758 37.5485 21.9739C41.1465 25.5719 43.1678 30.4518 43.1678 35.5402C43.1678 40.6286 41.1465 45.5086 37.5485 49.1066C33.9504 52.7046 29.0705 54.7259 23.9821 54.7259V54.7259ZM23.9821 50.8888C28.0528 50.8888 31.9568 49.2717 34.8352 46.3933C37.7136 43.5149 39.3307 39.6109 39.3307 35.5402C39.3307 31.4695 37.7136 27.5655 34.8352 24.6871C31.9568 21.8087 28.0528 20.1916 23.9821 20.1916C19.9114 20.1916 16.0074 21.8087 13.129 24.6871C10.2506 27.5655 8.63353 31.4695 8.63353 35.5402C8.63353 39.6109 10.2506 43.5149 13.129 46.3933C16.0074 49.2717 19.9114 50.8888 23.9821 50.8888V50.8888Z" fill="#FFEA7A"/>
<path d="M15.8533 17.5993C15.8533 18.7016 16.0704 19.7931 16.4922 20.8115C16.914 21.8299 17.5323 22.7552 18.3117 23.5346C19.0912 24.314 20.0165 24.9323 21.0349 25.3541C22.0533 25.776 23.1447 25.9931 24.247 25.9931C25.3493 25.9931 26.4408 25.776 27.4592 25.3541C28.4776 24.9323 29.4029 24.314 30.1823 23.5346C30.9617 22.7552 31.58 21.8299 32.0018 20.8115C32.4237 19.7931 32.6408 18.7016 32.6408 17.5993C32.6408 16.497 32.4237 15.4055 32.0018 14.3872C31.58 13.3688 30.9617 12.4435 30.1823 11.664C29.4029 10.8846 28.4776 10.2663 27.4592 9.8445C26.4408 9.42268 25.3493 9.20557 24.247 9.20557C23.1447 9.20557 22.0533 9.42268 21.0349 9.8445C20.0165 10.2663 19.0912 10.8846 18.3117 11.664C17.5323 12.4435 16.914 13.3688 16.4922 14.3872C16.0704 15.4055 15.8533 16.497 15.8533 17.5993V17.5993Z" fill="#FFEA7A"/>
<path d="M31.1768 39.1375C31.1768 41.3637 32.0611 43.4987 33.6352 45.0728C35.2094 46.6469 37.3443 47.5313 39.5705 47.5313C41.7967 47.5313 43.9317 46.6469 45.5058 45.0728C47.0799 43.4987 47.9643 41.3637 47.9643 39.1375C47.9643 38.0352 47.7472 36.9438 47.3253 35.9254C46.9035 34.907 46.2852 33.9817 45.5058 33.2022C44.7264 32.4228 43.801 31.8045 42.7827 31.3827C41.7643 30.9609 40.6728 30.7438 39.5705 30.7438C38.4682 30.7438 37.3767 30.9609 36.3584 31.3827C35.34 31.8045 34.4147 32.4228 33.6352 33.2022C32.8558 33.9817 32.2375 34.907 31.8157 35.9254C31.3939 36.9438 31.1768 38.0352 31.1768 39.1375V39.1375Z" fill="#FFEA7A"/>
<path d="M0 39.1375C0 41.3637 0.884339 43.4987 2.45847 45.0728C4.03261 46.6469 6.16759 47.5313 8.39375 47.5313C10.6199 47.5313 12.7549 46.6469 14.329 45.0728C15.9032 43.4987 16.7875 41.3637 16.7875 39.1375C16.7875 36.9114 15.9032 34.7764 14.329 33.2022C12.7549 31.6281 10.6199 30.7438 8.39375 30.7438C6.16759 30.7438 4.03261 31.6281 2.45847 33.2022C0.884339 34.7764 0 36.9114 0 39.1375H0Z" fill="#FFEA7A"/>
</g>
<defs>
<clipPath id="clip0_504_107">
<rect width="48" height="48" fill="white" transform="translate(0 8)"/>
</clipPath>
</defs>
</svg>
