<svg width="60" height="79" viewBox="0 0 60 79" fill="none" xmlns="http://www.w3.org/2000/svg">
<path d="M2.23242 67.1709H8.09766V66.4736H3.12109V65.3252H8.09766V64.6553H3.59961V59.8428H8.09766V59.1729H2.27344V57.9424H8.09766V57.2588L3.44922 57.3408C3.3763 56.9398 3.28971 56.5296 3.18945 56.1104C7.06315 56.0648 10.8457 55.96 14.5371 55.7959C14.5462 55.8232 14.6328 56.2516 14.7969 57.0811L9.90234 57.2109V57.9424H15.8086V59.1729H9.90234V59.8428H14.4551V64.6553H9.90234V65.3252H14.9609V66.4736H9.90234V67.1709H15.8086V68.4014H2.23242V67.1709ZM12.6914 60.9775H9.90234V61.7568H12.6914V60.9775ZM5.36328 61.7568H8.09766V60.9775H5.36328V61.7568ZM12.6914 63.5205V62.7412H9.90234V63.5205H12.6914ZM5.36328 63.5205H8.09766V62.7412H5.36328V63.5205ZM23.2188 58.0791H21.3457C21.5964 58.193 22.084 58.4072 22.8086 58.7217C22.6582 58.9541 22.4258 59.305 22.1113 59.7744H23.5195V61.3057H20.8672V62.1943H23.2734V63.7256H20.8672V67.0205C20.8672 67.4443 20.776 67.7793 20.5938 68.0254C20.416 68.2715 20.1654 68.4264 19.8418 68.4902C19.5228 68.5586 18.9303 68.5928 18.0645 68.5928C18.0234 68.0505 17.9323 67.5378 17.791 67.0547L17.5039 67.6631C17.1484 67.4443 16.6608 67.2165 16.041 66.9795C16.4967 66.1227 16.8932 65.1201 17.2305 63.9717L18.7617 64.4365C18.5156 65.2614 18.224 66.0589 17.8867 66.8291C18.11 66.8473 18.3333 66.8564 18.5566 66.8564C18.903 66.8564 19.0807 66.6514 19.0898 66.2412V63.7256H16.5195V62.1943H19.0898V61.3057H16.3008V59.7744H17.7705C17.5791 59.4007 17.3809 59.0452 17.1758 58.708L18.666 58.1064C19.0306 58.7126 19.3359 59.2686 19.582 59.7744H20.1836C20.6348 59.0133 20.9447 58.4482 21.1133 58.0791H16.5469V56.5479H18.9805C18.8574 56.2152 18.7389 55.9144 18.625 55.6455L20.5117 55.3037C20.6439 55.6592 20.7806 56.0739 20.9219 56.5479H23.2188V58.0791ZM29.7812 61.5654H28.7422V68.6748H26.9375V61.5654H25.7344V62.3447C25.7344 65.2295 25.11 67.4307 23.8613 68.9482C23.2415 68.4105 22.6673 67.9548 22.1387 67.5811C22.6582 67.1208 23.0638 66.5488 23.3555 65.8652L21.9609 66.6514C21.6419 65.9313 21.2956 65.2568 20.9219 64.6279L22.2344 63.9717C22.5579 64.4092 22.9339 65.0358 23.3623 65.8516C23.7406 64.9629 23.9297 63.8851 23.9297 62.6182V56.4658C26.0078 56.2562 27.6986 55.9235 29.002 55.4678L29.7812 57.2588C28.5508 57.5869 27.2018 57.8193 25.7344 57.9561V59.7744H29.7812V61.5654ZM43.8906 60.376C43.5078 60.8499 43.0703 61.4333 42.5781 62.126C42.2409 61.8617 41.915 61.5882 41.6006 61.3057C41.4775 64.2178 41.3818 65.9769 41.3135 66.583C41.2451 67.1891 41.0195 67.6562 40.6367 67.9844C40.2539 68.3171 39.7184 68.4834 39.0303 68.4834C38.0915 68.4834 37.2051 68.4697 36.3711 68.4424C36.2891 67.6859 36.1934 66.9977 36.084 66.3779C37.2689 66.4782 38.1257 66.5283 38.6543 66.5283C38.9688 66.5283 39.167 66.3893 39.249 66.1113C39.3356 65.8288 39.4062 64.6826 39.4609 62.6729H36.084C36.0065 63.9535 35.8219 64.9355 35.5303 65.6191C35.2432 66.3027 34.7897 66.9202 34.1699 67.4717C33.5547 68.0231 32.7799 68.5016 31.8457 68.9072C31.2806 68.1507 30.8066 67.5719 30.4238 67.1709C31.235 66.8473 31.9027 66.4896 32.4268 66.0977C32.9554 65.7012 33.3337 65.2819 33.5615 64.8398C33.7939 64.3932 33.9489 63.6709 34.0264 62.6729H32.0781V61.5859C31.8503 61.7591 31.6178 61.9255 31.3809 62.085C30.9616 61.4925 30.5469 60.9775 30.1367 60.54C32.1966 59.0908 33.7507 57.3682 34.7988 55.3721L36.6309 56.165C35.6784 57.9606 34.4821 59.501 33.042 60.7861H41.04C39.641 59.4372 38.4857 57.9333 37.5742 56.2744L39.2695 55.3994C40.4362 57.4137 41.9766 59.0726 43.8906 60.376ZM44.2051 63.5889C45.0208 62.249 45.5928 60.9821 45.9209 59.7881H44.3281V57.9971H45.9414V55.4814H47.7734V57.9971H49.168V59.7881H47.7734V61.0459C48.5482 61.4378 49.1816 61.7796 49.6738 62.0713L48.7715 63.6572C48.4753 63.4385 48.1426 63.2106 47.7734 62.9736V68.7979H45.9414V63.582C45.5996 64.3978 45.1849 65.2021 44.6973 65.9951C44.5605 65.2113 44.3965 64.4092 44.2051 63.5889ZM57.043 55.6455L57.6445 57.4775C56.1953 57.7327 54.2038 57.9606 51.6699 58.1611V60.2393H57.7949V62.0439H55.5391V68.7295H53.6797V62.0439H51.6699C51.6699 64.9378 51.0501 67.2165 49.8105 68.8799C49.3366 68.2874 48.849 67.7633 48.3477 67.3076C49.3229 66.0589 49.8105 64.3408 49.8105 62.1533V56.3701C52.873 56.2152 55.2839 55.9736 57.043 55.6455Z" fill="#FFA34F"/>
<g clip-path="url(#clip0_504_114)">
<path d="M29.9821 46.7259C27.4626 46.7259 24.9678 46.2297 22.6401 45.2655C20.3123 44.3013 18.1973 42.8881 16.4158 41.1066C14.6342 39.325 13.221 37.21 12.2568 34.8823C11.2926 32.5546 10.7964 30.0597 10.7964 27.5402C10.7964 25.0207 11.2926 22.5259 12.2568 20.1982C13.221 17.8704 14.6342 15.7554 16.4158 13.9739C18.1973 12.1923 20.3123 10.7791 22.6401 9.81492C24.9678 8.85075 27.4626 8.35449 29.9821 8.35449C35.0705 8.35449 39.9504 10.3758 43.5485 13.9739C47.1465 17.5719 49.1678 22.4518 49.1678 27.5402C49.1678 32.6286 47.1465 37.5086 43.5485 41.1066C39.9504 44.7046 35.0705 46.7259 29.9821 46.7259V46.7259ZM29.9821 42.8888C34.0528 42.8888 37.9568 41.2717 40.8352 38.3933C43.7136 35.5149 45.3307 31.6109 45.3307 27.5402C45.3307 23.4695 43.7136 19.5655 40.8352 16.6871C37.9568 13.8087 34.0528 12.1916 29.9821 12.1916C25.9114 12.1916 22.0074 13.8087 19.129 16.6871C16.2506 19.5655 14.6335 23.4695 14.6335 27.5402C14.6335 31.6109 16.2506 35.5149 19.129 38.3933C22.0074 41.2717 25.9114 42.8888 29.9821 42.8888V42.8888Z" fill="#FFA34F"/>
<path d="M21.8533 9.59932C21.8533 10.7016 22.0704 11.7931 22.4922 12.8115C22.914 13.8299 23.5323 14.7552 24.3117 15.5346C25.0912 16.314 26.0165 16.9323 27.0349 17.3541C28.0533 17.776 29.1447 17.9931 30.247 17.9931C31.3493 17.9931 32.4408 17.776 33.4592 17.3541C34.4776 16.9323 35.4029 16.314 36.1823 15.5346C36.9617 14.7552 37.58 13.8299 38.0018 12.8115C38.4237 11.7931 38.6408 10.7016 38.6408 9.59932C38.6408 8.49704 38.4237 7.40555 38.0018 6.38717C37.58 5.36879 36.9617 4.44347 36.1823 3.66404C35.4029 2.88461 34.4776 2.26633 33.4592 1.8445C32.4408 1.42268 31.3493 1.20557 30.247 1.20557C29.1447 1.20557 28.0533 1.42268 27.0349 1.8445C26.0165 2.26633 25.0912 2.88461 24.3117 3.66404C23.5323 4.44347 22.914 5.36879 22.4922 6.38717C22.0704 7.40555 21.8533 8.49704 21.8533 9.59932V9.59932Z" fill="#FFA34F"/>
<path d="M37.1768 31.1375C37.1768 33.3637 38.0611 35.4987 39.6352 37.0728C41.2094 38.6469 43.3443 39.5313 45.5705 39.5313C47.7967 39.5313 49.9317 38.6469 51.5058 37.0728C53.0799 35.4987 53.9643 33.3637 53.9643 31.1375C53.9643 30.0352 53.7472 28.9438 53.3253 27.9254C52.9035 26.907 52.2852 25.9817 51.5058 25.2022C50.7264 24.4228 49.801 23.8045 48.7827 23.3827C47.7643 22.9609 46.6728 22.7438 45.5705 22.7438C44.4682 22.7438 43.3767 22.9609 42.3584 23.3827C41.34 23.8045 40.4147 24.4228 39.6352 25.2022C38.8558 25.9817 38.2375 26.907 37.8157 27.9254C37.3939 28.9438 37.1768 30.0352 37.1768 31.1375V31.1375Z" fill="#FFA34F"/>
<path d="M6 31.1375C6 33.3637 6.88434 35.4987 8.45847 37.0728C10.0326 38.6469 12.1676 39.5313 14.3938 39.5313C16.6199 39.5313 18.7549 38.6469 20.329 37.0728C21.9032 35.4987 22.7875 33.3637 22.7875 31.1375C22.7875 28.9114 21.9032 26.7764 20.329 25.2022C18.7549 23.6281 16.6199 22.7438 14.3938 22.7438C12.1676 22.7438 10.0326 23.6281 8.45847 25.2022C6.88434 26.7764 6 28.9114 6 31.1375H6Z" fill="#FFA34F"/>
</g>
<defs>
<clipPath id="clip0_504_114">
<rect width="48" height="48" fill="white" transform="translate(6)"/>
</clipPath>
</defs>
</svg>
