<svg width="20" height="20" viewBox="0 0 20 20" fill="none" xmlns="http://www.w3.org/2000/svg">
<path d="M16.4999 2.33341C16.2499 1.91675 15.8333 1.66675 15.4166 1.66675H4.58328C4.16661 1.66675 3.74995 1.91675 3.49995 2.33341C3.24995 2.75008 3.33328 3.16675 3.58328 3.58341L7.49995 8.75008V15.0001L12.4999 18.3334V9.00008C12.4999 8.91675 12.4999 8.83341 12.5833 8.83341L16.4999 3.58341C16.7499 3.16675 16.7499 2.75008 16.4999 2.33341ZM15.8333 3.08341L11.8333 8.33341C11.6666 8.50008 11.6666 8.75008 11.6666 9.00008V13.3334H8.33328V9.00008C8.33328 8.75008 8.24995 8.50008 8.16661 8.33341L4.24995 3.16675C4.08328 2.91675 4.16661 2.75008 4.24995 2.75008C4.33328 2.58341 4.41661 2.50008 4.58328 2.50008H15.3333C15.4999 2.50008 15.6666 2.58341 15.7499 2.75008C15.8333 2.75008 15.9166 2.91675 15.8333 3.08341V3.08341ZM13.9999 3.41675C14.1666 3.58341 14.2499 3.83341 14.0833 4.00008L11.5833 7.33341C11.4999 7.41675 11.4166 7.50008 11.2499 7.50008C11.1666 7.50008 11.0833 7.50008 10.9999 7.41675C10.8333 7.25008 10.7499 7.00008 10.9166 6.83341L13.4166 3.50008C13.5833 3.33341 13.8333 3.25008 13.9999 3.41675V3.41675Z" fill="#5AA6FF"/>
</svg>
