<svg width="48" height="48" viewBox="0 0 48 48" fill="none" xmlns="http://www.w3.org/2000/svg">
<g clip-path="url(#clip0_623_197)">
<path d="M23.9573 47.872C37.1253 47.872 47.84 37.1573 47.84 23.9893C47.84 10.8213 37.1253 0.101318 23.9573 0.101318C10.7893 0.101318 0.0693359 10.816 0.0693359 23.984C0.0693359 37.152 10.784 47.872 23.9573 47.872ZM23.9573 3.41865C35.296 3.41865 44.5227 12.6453 44.5227 23.984C44.5227 35.3227 35.296 44.5493 23.9573 44.5493C12.6187 44.5493 3.392 35.3227 3.392 23.984C3.392 12.6453 12.6133 3.41865 23.9573 3.41865ZM14.1333 25.1307C13.488 24.4853 13.488 23.4347 14.1333 22.784C14.7787 22.1387 15.8293 22.1387 16.48 22.784L22.0267 28.3307L33.6267 16.7307C34.272 16.0853 35.3227 16.0853 35.9733 16.7307C36.6187 17.376 36.6187 18.4267 35.9733 19.0773L23.1947 31.8453C22.8693 32.1707 22.448 32.3307 22.0213 32.3307C21.5947 32.3307 21.1733 32.1707 20.848 31.8453L14.1333 25.1307Z" fill="white"/>
</g>
<defs>
<clipPath id="clip0_623_197">
<rect width="48" height="48" fill="white"/>
</clipPath>
</defs>
</svg>
