<svg width="48" height="48" viewBox="0 0 48 48" fill="none" xmlns="http://www.w3.org/2000/svg">
<g clip-path="url(#clip0_623_194)">
<path d="M24 44.8571C35.52 44.8571 44.8571 35.5189 44.8571 24C44.8571 12.48 35.5189 3.14291 24 3.14291C12.48 3.14291 3.14291 12.4811 3.14291 24C3.14291 35.52 12.4811 44.8571 24 44.8571ZM24 48C10.7455 48 0 37.2545 0 24C0 10.7455 10.7455 0 24 0C37.2545 0 48 10.7455 48 24C48 37.2545 37.2545 48 24 48Z" fill="white"/>
<path d="M24.0001 30C25.1041 30 25.9997 29.0051 25.9997 27.7778V12.2215C25.9997 10.9953 25.1052 10.0004 24.0001 10.0004C22.8961 10.0004 22.0004 10.9953 22.0004 12.2215V27.7778C22.0004 29.0051 22.895 30 24.0001 30ZM24.0001 34.0004C23.7335 33.9941 23.4683 34.0413 23.2202 34.139C22.9721 34.2367 22.746 34.3831 22.5552 34.5694C22.3645 34.7558 22.2129 34.9784 22.1094 35.2241C22.0059 35.4699 21.9526 35.7339 21.9526 36.0005C21.9526 36.2672 22.0059 36.5312 22.1094 36.777C22.2129 37.0227 22.3645 37.2453 22.5552 37.4317C22.746 37.618 22.9721 37.7644 23.2202 37.8621C23.4683 37.9598 23.7335 38.007 24.0001 38.0007C24.5225 37.9885 25.0194 37.7724 25.3845 37.3987C25.7497 37.0249 25.9541 36.5231 25.9541 36.0005C25.9541 35.478 25.7497 34.9762 25.3845 34.6024C25.0194 34.2287 24.5225 34.0126 24.0001 34.0004Z" fill="white"/>
</g>
<defs>
<clipPath id="clip0_623_194">
<rect width="48" height="48" fill="white"/>
</clipPath>
</defs>
</svg>
