<svg width="48" height="48" viewBox="0 0 48 48" fill="none" xmlns="http://www.w3.org/2000/svg">
<g clip-path="url(#clip0_702_11)">
<path d="M24 47.6849C10.9191 47.6849 0.314941 37.0807 0.314941 23.9998C0.314941 10.9189 10.9191 0.31488 24 0.31488C37.0809 0.31488 47.6851 10.9191 47.6851 24C47.6851 37.0809 37.0809 47.6849 24 47.6849V47.6849ZM24 3.27551C12.5546 3.27551 3.27557 12.5544 3.27557 24C3.27557 35.4456 12.5546 44.7243 24 44.7243C35.4455 44.7243 44.7244 35.4454 44.7244 24C44.7244 12.5545 35.4455 3.27551 24 3.27551V3.27551ZM26.102 24.0077L32.374 30.2808C32.9523 30.8581 32.9523 31.7958 32.374 32.3739C31.7959 32.9522 30.8582 32.9522 30.2809 32.3739L24.0077 26.1019L17.6933 32.4163C17.1102 32.9993 16.1658 32.9993 15.5837 32.4163C15.0006 31.8333 15.0006 30.8888 15.5837 30.3066L21.8981 23.9913L15.626 17.7191C15.0478 17.1409 15.0478 16.2041 15.626 15.6258C16.2043 15.0477 17.141 15.0477 17.7193 15.6258L23.9914 21.898L30.3531 15.5363C30.9361 14.9542 31.8806 14.9542 32.4628 15.5363C33.0458 16.1193 33.0458 17.0638 32.4628 17.6469L26.1019 24.0078L26.102 24.0077Z" fill="white"/>
</g>
<defs>
<clipPath id="clip0_702_11">
<rect width="48" height="48" fill="white"/>
</clipPath>
</defs>
</svg>
