<svg width="45" height="45" viewBox="0 0 45 45" fill="none" xmlns="http://www.w3.org/2000/svg">
<path d="M25.7262 22.5261L42.7853 5.46761C43.6466 4.60625 43.6466 3.18693 42.7853 2.32557L42.6921 2.23239C41.8307 1.37102 40.4114 1.37102 39.55 2.23239L22.4909 19.3148L5.43241 2.23239C4.57105 1.37102 3.15173 1.37102 2.29037 2.23239L2.19719 2.32557C1.3131 3.18693 1.3131 4.60625 2.19719 5.46761L19.2563 22.5267L2.19719 39.5852C1.33639 40.4466 1.33639 41.8659 2.19719 42.7273L2.29037 42.8205C3.15173 43.6818 4.57105 43.6818 5.43241 42.8205L22.4909 25.7614L39.55 42.8199C40.4114 43.6812 41.8307 43.6812 42.6921 42.8199L42.7853 42.7267C43.6466 41.8653 43.6466 40.446 42.7853 39.5847L25.7262 22.5261Z" fill="#FF6B00"/>
</svg>
