<svg width="43" height="43" viewBox="0 0 43 43" fill="none" xmlns="http://www.w3.org/2000/svg">
<path d="M24.7262 21.5261L41.7853 4.46761C42.6466 3.60625 42.6466 2.18693 41.7853 1.32557L41.6921 1.23239C40.8307 0.371024 39.4114 0.371024 38.55 1.23239L21.4909 18.3148L4.43241 1.23239C3.57105 0.371024 2.15173 0.371024 1.29037 1.23239L1.19719 1.32557C0.313096 2.18693 0.313096 3.60625 1.19719 4.46761L18.2563 21.5267L1.19719 38.5852C0.336391 39.4466 0.336391 40.8659 1.19719 41.7273L1.29037 41.8205C2.15173 42.6818 3.57105 42.6818 4.43241 41.8205L21.4909 24.7614L38.55 41.8199C39.4114 42.6812 40.8307 42.6812 41.6921 41.8199L41.7853 41.7267C42.6466 40.8653 42.6466 39.446 41.7853 38.5847L24.7262 21.5261Z" fill="white"/>
</svg>
