<svg width="90" height="90" viewBox="0 0 90 90" fill="none" xmlns="http://www.w3.org/2000/svg">
<path d="M61.6592 18.5084C61.0976 18.5084 60.6062 18.3118 60.1851 17.9187C59.7639 17.5256 59.4129 17.0483 59.1322 16.4868C58.8514 15.9252 58.6408 15.3496 58.5004 14.76C58.36 14.1703 58.2898 13.6789 58.2898 13.2859V2.84082H58.4583C58.9075 2.84082 59.3708 2.91102 59.8481 3.05141C60.3255 3.1918 60.887 3.45854 61.5328 3.85163C62.1786 4.24472 62.9648 4.82032 63.8914 5.57843C64.818 6.33654 65.9832 7.33331 67.3871 8.56874C68.9033 9.91649 70.0966 11.0677 70.9671 12.0223C71.8375 12.977 72.5113 13.7772 72.9887 14.423C73.466 15.0688 73.7608 15.6163 73.8731 16.0656C73.9854 16.5148 74.0416 16.9079 74.0416 17.2449V18.5084H61.6592V18.5084ZM71.4303 50.0962C74.0135 50.0962 76.4282 50.5735 78.6745 51.5282C80.9207 52.4828 82.8862 53.8025 84.5709 55.4872C86.2556 57.1719 87.5752 59.1373 88.5299 61.3836C89.4845 63.6298 89.9619 66.0445 89.9619 68.6277C89.9619 71.2109 89.4845 73.6256 88.5299 75.8718C87.5752 78.1181 86.2556 80.0835 84.5709 81.7682C82.8862 83.4529 80.9207 84.7726 78.6745 85.7272C76.4282 86.6819 74.0135 87.1592 71.4303 87.1592C68.9033 87.1592 66.5167 86.6819 64.2704 85.7272C62.0242 84.7726 60.0587 83.4529 58.374 81.7682C56.6894 80.0835 55.3557 78.1181 54.3729 75.8718C53.3902 73.6256 52.8988 71.2109 52.8988 68.6277C52.8988 66.0445 53.3902 63.6298 54.3729 61.3836C55.3557 59.1373 56.6894 57.1719 58.374 55.4872C60.0587 53.8025 62.0242 52.4828 64.2704 51.5282C66.5167 50.5735 68.9033 50.0962 71.4303 50.0962V50.0962ZM81.9596 71.5759C82.465 71.5759 82.9143 71.2951 83.3074 70.7335C83.7004 70.172 83.897 69.4981 83.897 68.7119C83.897 67.9257 83.7004 67.2519 83.3074 66.6903C82.9143 66.1287 82.465 65.848 81.9596 65.848H73.9574V58.4354C73.9574 57.9861 73.7187 57.593 73.2414 57.2561C72.764 56.9191 72.1042 56.7507 71.2619 56.7507C70.4195 56.7507 69.7878 56.9191 69.3666 57.2561C68.9454 57.593 68.7348 57.9861 68.7348 58.4354V67.7011C68.6225 68.1504 68.5664 68.4873 68.5664 68.7119C68.5664 69.4981 68.7629 70.172 69.156 70.7335C69.5491 71.2951 69.9984 71.5759 70.5038 71.5759H81.9596V71.5759ZM47.4236 66.1007C47.3674 66.4938 47.3394 66.8869 47.3394 67.2799V68.5435C47.3394 71.0705 47.7044 73.4571 48.4344 75.7034C49.1644 77.9496 50.1752 80.0555 51.4668 82.0209H21.6479C20.581 82.0209 19.4157 81.7121 18.1522 81.0943C16.8887 80.4766 15.7094 79.6624 14.6144 78.6516C13.5193 77.6408 12.6068 76.4895 11.8768 75.198C11.1468 73.9064 10.7817 72.5586 10.7817 71.1547V13.707C10.7817 12.5277 11.0625 11.3064 11.6241 10.0428C12.1856 8.77933 12.9157 7.61409 13.8142 6.54712C14.7127 5.48016 15.7516 4.5957 16.9308 3.89375C18.1101 3.1918 19.3455 2.84082 20.6371 2.84082H52.8988V13.3701C52.8988 14.4932 53.0673 15.6585 53.4042 16.8658C53.7412 18.0732 54.2746 19.2103 55.0047 20.2773C55.7347 21.3443 56.6613 22.2147 57.7844 22.8885C58.9075 23.5624 60.2272 23.8994 61.7434 23.8994H74.0416V44.8737C73.5923 44.7614 73.115 44.7052 72.6096 44.7052H71.0934C66.8817 44.7052 63.035 45.6879 59.5533 47.6534C56.0716 49.6189 53.2638 52.2582 51.1299 55.5714H26.6178C25.1577 55.5714 23.9082 56.0768 22.8693 57.0876C21.8305 58.0984 21.311 59.3339 21.311 60.7939C21.311 62.254 21.8305 63.5035 22.8693 64.5423C23.9082 65.5812 25.1577 66.1007 26.6178 66.1007H47.4236H47.4236ZM26.6178 34.4286C25.1577 34.4286 23.9082 34.9481 22.8693 35.987C21.8305 37.0258 21.311 38.2753 21.311 39.7354C21.311 41.1954 21.8305 42.4309 22.8693 43.4417C23.9082 44.4525 25.1577 44.9579 26.6178 44.9579H58.2056C59.6656 44.9579 60.9011 44.4525 61.9119 43.4417C62.9227 42.4309 63.4281 41.1954 63.4281 39.7354C63.4281 38.2753 62.9227 37.0258 61.9119 35.987C60.9011 34.9481 59.6656 34.4286 58.2056 34.4286H26.6178Z" fill="#FF993C"/>
</svg>
