<svg width="32" height="32" viewBox="0 0 32 32" fill="none" xmlns="http://www.w3.org/2000/svg">
<g clip-path="url(#clip0_530_950)">
<path d="M6.15385 2.46154C5.17459 2.46154 4.23543 2.85055 3.54299 3.54299C2.85055 4.23543 2.46154 5.17459 2.46154 6.15385V25.8462C2.46154 26.331 2.55704 26.8112 2.7426 27.2591C2.92815 27.7071 3.20013 28.1141 3.54299 28.457C3.88585 28.7999 4.29289 29.0718 4.74086 29.2574C5.18883 29.443 5.66897 29.5385 6.15385 29.5385H25.8462C26.331 29.5385 26.8112 29.443 27.2591 29.2574C27.7071 29.0718 28.1141 28.7999 28.457 28.457C28.7999 28.1141 29.0718 27.7071 29.2574 27.2591C29.443 26.8112 29.5385 26.331 29.5385 25.8462V6.15385C29.5385 5.66897 29.443 5.18883 29.2574 4.74086C29.0718 4.29289 28.7999 3.88585 28.457 3.54299C28.1141 3.20013 27.7071 2.92815 27.2591 2.7426C26.8112 2.55704 26.331 2.46154 25.8462 2.46154H6.15385ZM6.15385 0H25.8462C27.4783 0 29.0435 0.64835 30.1976 1.80242C31.3517 2.95649 32 4.52174 32 6.15385V25.8462C32 27.4783 31.3517 29.0435 30.1976 30.1976C29.0435 31.3517 27.4783 32 25.8462 32H6.15385C4.52174 32 2.95649 31.3517 1.80242 30.1976C0.64835 29.0435 0 27.4783 0 25.8462L0 6.15385C0 4.52174 0.64835 2.95649 1.80242 1.80242C2.95649 0.64835 4.52174 0 6.15385 0V0Z" fill="#5BCBEE"/>
</g>
<defs>
<clipPath id="clip0_530_950">
<rect width="32" height="32" fill="white"/>
</clipPath>
</defs>
</svg>
