<svg width="32" height="32" viewBox="0 0 32 32" fill="none" xmlns="http://www.w3.org/2000/svg">
<g clip-path="url(#clip0_1209_157)">
<path d="M6.15385 0H25.8462C27.4783 0 29.0435 0.64835 30.1976 1.80242C31.3517 2.95649 32 4.52174 32 6.15385V25.8462C32 27.4783 31.3517 29.0435 30.1976 30.1976C29.0435 31.3517 27.4783 32 25.8462 32H6.15385C4.52174 32 2.95649 31.3517 1.80242 30.1976C0.64835 29.0435 0 27.4783 0 25.8462L0 6.15385C0 4.52174 0.64835 2.95649 1.80242 1.80242C2.95649 0.64835 4.52174 0 6.15385 0V0ZM6.15385 2.46154C5.17459 2.46154 4.23543 2.85055 3.54299 3.54299C2.85055 4.23543 2.46154 5.17459 2.46154 6.15385V25.8462C2.46154 26.331 2.55704 26.8112 2.7426 27.2591C2.92815 27.7071 3.20013 28.1141 3.54299 28.457C3.88585 28.7999 4.29289 29.0718 4.74086 29.2574C5.18883 29.443 5.66897 29.5385 6.15385 29.5385H25.8462C26.331 29.5385 26.8112 29.443 27.2591 29.2574C27.7071 29.0718 28.1141 28.7999 28.457 28.457C28.7999 28.1141 29.0718 27.7071 29.2574 27.2591C29.443 26.8112 29.5385 26.331 29.5385 25.8462V6.15385C29.5385 5.66897 29.443 5.18883 29.2574 4.74086C29.0718 4.29289 28.7999 3.88585 28.457 3.54299C28.1141 3.20013 27.7071 2.92815 27.2591 2.7426C26.8112 2.55704 26.331 2.46154 25.8462 2.46154H6.15385ZM24.432 10.5305C24.5406 10.6338 24.6277 10.7575 24.6885 10.8945C24.7492 11.0316 24.7824 11.1792 24.786 11.3291C24.7897 11.4789 24.7638 11.628 24.7098 11.7678C24.6558 11.9077 24.5748 12.0355 24.4714 12.144L15.1126 21.9286C15.1089 21.9335 15.1003 21.936 15.0929 21.9434L15.0806 21.9606C15.0129 22.0271 14.9329 22.0615 14.8554 22.1083C14.8062 22.1354 14.768 22.176 14.7175 22.1969C14.5816 22.2539 14.4357 22.2835 14.2882 22.2839C14.1408 22.2843 13.9948 22.2556 13.8585 22.1994C13.8191 22.1834 13.7871 22.1489 13.7477 22.128C13.6615 22.0825 13.5729 22.0394 13.4966 21.968C13.4905 21.9631 13.488 21.9545 13.4806 21.9471C13.4745 21.9434 13.4683 21.9409 13.4634 21.936L8.74954 17.0425C8.64521 16.9347 8.56319 16.8075 8.50818 16.668C8.45318 16.5285 8.42628 16.3795 8.42902 16.2296C8.43177 16.0796 8.4641 15.9317 8.52418 15.7943C8.58425 15.6569 8.67087 15.5327 8.77908 15.4289C8.88671 15.3244 9.01395 15.2423 9.15346 15.1872C9.29298 15.1321 9.44202 15.1051 9.59199 15.1079C9.74197 15.1106 9.88992 15.143 10.0273 15.2032C10.1647 15.2634 10.2889 15.3501 10.3926 15.4585L14.2818 19.4929L22.816 10.5674C22.9196 10.4588 23.0437 10.3716 23.181 10.311C23.3183 10.2503 23.4663 10.2173 23.6163 10.2139C23.7664 10.2105 23.9157 10.2367 24.0557 10.291C24.1956 10.3453 24.3235 10.4267 24.432 10.5305V10.5305Z" fill="#5BCBEE"/>
</g>
<defs>
<clipPath id="clip0_1209_157">
<rect width="32" height="32" fill="white"/>
</clipPath>
</defs>
</svg>
