<svg width="60" height="79" viewBox="0 0 60 79" fill="none" xmlns="http://www.w3.org/2000/svg">
<path d="M2.3418 61.6201H7.96094C7.96094 61.5745 7.97233 60.9867 7.99512 59.8564H3.05273V58.1064H6.0127C5.48861 57.4183 5.03971 56.8532 4.66602 56.4111L6.21094 55.3174C6.59375 55.7367 7.24089 56.4613 8.15234 57.4912L7.26367 58.1064H9.62891C10.3398 57.1357 10.9551 56.2061 11.4746 55.3174L13.4434 56.3428L11.9531 58.1064H14.9883V59.8564H10.0322C10.0322 60.2301 10.0277 60.818 10.0186 61.6201H15.6719V63.3701H10.3535C11.224 65.1475 13.0332 66.305 15.7812 66.8428C15.1341 67.6813 14.6693 68.3148 14.3867 68.7432C11.8255 68.0186 10.0322 66.6855 9.00684 64.7441C8.12728 66.4349 6.36133 67.818 3.70898 68.8936C3.2806 68.374 2.7793 67.7952 2.20508 67.1572C5.07161 66.264 6.86719 65.0016 7.5918 63.3701H2.3418V61.6201ZM18.3789 55.9326L20.1699 55.3037C20.571 55.9326 21.0085 56.6709 21.4824 57.5186L19.582 58.2432C19.1719 57.3773 18.7708 56.6071 18.3789 55.9326ZM23.6426 58.2568H25.3652V59.7197H26.8691V61.2783H25.3652V66.0498C25.3652 66.3825 25.3128 66.6673 25.208 66.9043C25.5635 66.9271 25.9759 66.9385 26.4453 66.9385C27.0469 66.9385 27.3477 66.665 27.3477 66.1182V57.6416H21.9473V55.96H29.248V66.2686C29.248 67.0114 29.1113 67.5719 28.8379 67.9502C28.569 68.333 28.1953 68.5632 27.7168 68.6406C27.2428 68.7227 26.4499 68.7705 25.3379 68.7842C25.2376 68.1826 25.1283 67.6631 25.0098 67.2256C24.8138 67.4535 24.5563 67.6038 24.2373 67.6768C23.9183 67.7497 23.1641 67.7861 21.9746 67.7861C21.8835 67.1663 21.7467 66.5648 21.5645 65.9814C22.2116 66.027 22.722 66.0498 23.0957 66.0498C23.4603 66.0498 23.6426 65.8493 23.6426 65.4482V61.7705C22.7038 63.7301 21.3275 65.2887 19.5137 66.4463C19.2266 65.8219 18.9395 65.2979 18.6523 64.874V68.7568H16.752V57.1084H18.6523V64.7441C20.1882 63.9193 21.4255 62.764 22.3643 61.2783H19.2949V59.7197H23.6426V58.2568ZM35.3594 55.9053H43.6172V57.5869H40.001L39.7549 58.8994H43.084V65.1475H41.2246V60.54H37.082V65.2432H35.2227V58.8994H37.6973L37.9434 57.5869H35.3594V55.9053ZM30.5742 67.2393L30.1914 65.1885L31.5586 64.8877V58.1338H30.3281V56.2607H34.7578V58.1338H33.4316V64.4297C33.8919 64.3112 34.3568 64.1859 34.8262 64.0537C34.7988 64.7008 34.7852 65.389 34.7852 66.1182C33.2539 66.4827 31.8503 66.8564 30.5742 67.2393ZM38.3672 61.3877H40.1719C40.1628 62.5908 39.9964 63.6549 39.6729 64.5801C41.0537 65.4414 42.446 66.3825 43.8496 67.4033L42.6875 68.8799C41.7122 68.0732 40.4681 67.1322 38.9551 66.0566C38.1257 67.3008 36.7949 68.2601 34.9629 68.9346C34.6257 68.2327 34.2793 67.613 33.9238 67.0752C35.6146 66.6696 36.7767 66.0293 37.4102 65.1543C38.0482 64.2793 38.3672 63.0238 38.3672 61.3877ZM45.6133 68.8252V56.1924H56.3867V68.8252H54.4453V67.8955H47.5547V68.8252H45.6133ZM54.4453 57.9971H47.5547V59.501H54.4453V57.9971ZM47.5547 62.7549H54.4453V61.251H47.5547V62.7549ZM47.5547 66.0908H54.4453V64.5049H47.5547V66.0908Z" fill="#FFF8E0"/>
<path fill-rule="evenodd" clip-rule="evenodd" d="M35.5365 1.64471H18.0899L18.0897 1.64493C16.9094 1.7528 15.8773 2.42997 15.0453 3.23483C13.8558 4.41116 12.9966 6.03583 13.0588 7.74157C13.0595 12.5345 13.0593 17.3273 13.0592 22.1201C13.059 27.3861 13.0588 32.6521 13.0597 37.9181C13.0496 38.8036 13.3299 39.6764 13.8098 40.4164C14.5554 41.6182 15.6471 42.5989 16.9055 43.2402C17.5349 43.5582 18.2261 43.7845 18.938 43.7757C24.2158 43.7766 29.4932 43.7766 34.7706 43.7757C33.0425 41.33 32.3131 38.265 32.5741 35.2956C31.2066 35.2951 29.8391 35.2954 28.4716 35.2958C26.1275 35.2964 23.7835 35.297 21.4395 35.2934C20.3219 35.3056 19.2604 34.5592 18.8503 33.5284C18.5205 32.6547 18.6341 31.6081 19.2043 30.8585C19.718 30.1546 20.5566 29.6844 21.4369 29.691C23.5677 29.6873 25.6986 29.688 27.8295 29.6887C30.0698 29.6893 32.3101 29.69 34.5505 29.6857C36.0203 27.4041 38.2427 25.6211 40.7866 24.6777C42.696 23.9569 44.7767 23.7789 46.7974 23.9846C46.8005 20.2779 46.8009 16.5712 46.7974 12.8649C45.441 12.8611 44.0848 12.8618 42.7285 12.8624C42.0209 12.8627 41.3132 12.863 40.6055 12.8627C39.9033 12.8711 39.1819 12.8171 38.5327 12.5267C36.5984 11.6473 35.619 9.47007 35.5436 7.43705C35.5342 6.26577 35.5355 5.0945 35.5369 3.92324C35.5377 3.16373 35.5386 2.40422 35.5365 1.64471ZM18.8618 20.2102C19.2285 19.3286 20.0671 18.6496 21.0159 18.5089L21.0158 18.509C21.2566 18.4703 21.5013 18.4703 21.7452 18.4708C23.9276 18.4718 26.11 18.4714 28.2924 18.4709C31.6655 18.4702 35.0385 18.4695 38.4116 18.4743C40.0323 18.4602 41.4214 20.0712 41.1157 21.6774C40.9403 22.999 39.7065 24.0911 38.3674 24.0775C32.8194 24.0818 27.2713 24.0801 21.7238 24.0784L21.483 24.0784C20.6216 24.0919 19.7873 23.6621 19.2636 22.9853C18.6386 22.2226 18.5044 21.1195 18.8618 20.2102ZM38.8125 1.64471H38.3665L38.3664 1.64489C38.3669 2.3297 38.3666 3.0145 38.3663 3.69933C38.3659 4.85673 38.3654 6.01419 38.3686 7.17182C38.4126 8.00777 38.6958 8.85428 39.2402 9.49949C39.459 9.78897 39.7973 9.99685 40.1687 9.98852C42.378 9.99154 44.5877 9.99286 46.7975 9.98803C46.8738 9.209 46.718 8.40857 46.2224 7.78573C45.1376 6.35501 43.769 5.18087 42.4098 4.01481C42.1957 3.83107 41.9817 3.64754 41.7692 3.46323C41.6182 3.34256 41.4678 3.21709 41.3164 3.09084C40.566 2.46497 39.7925 1.81989 38.8125 1.64471ZM45.5 47C51.299 47 56 42.299 56 36.5C56 30.701 51.299 26 45.5 26C39.701 26 35 30.701 35 36.5C35 42.299 39.701 47 45.5 47ZM38.9632 29.916C39.5618 29.3434 40.5113 29.3645 41.084 29.9632L45.5 34.5799L49.916 29.9632C50.4887 29.3645 51.4382 29.3434 52.0368 29.916C52.6355 30.4887 52.6566 31.4382 52.084 32.0368L47.5757 36.75L52.084 41.4632C52.6566 42.0618 52.6355 43.0113 52.0368 43.584C51.4382 44.1566 50.4887 44.1355 49.916 43.5368L45.5 38.9201L41.084 43.5368C40.5113 44.1355 39.5618 44.1566 38.9632 43.584C38.3645 43.0113 38.3434 42.0618 38.916 41.4632L43.4243 36.75L38.916 32.0368C38.3434 31.4382 38.3645 30.4887 38.9632 29.916Z" fill="#FFF8E0"/>
</svg>
