<svg width="30" height="30" viewBox="0 0 30 30" fill="none" xmlns="http://www.w3.org/2000/svg">
<path d="M5.05607 1.02795H15.9602C15.9635 2.23468 15.955 3.44141 15.9646 4.64817C16.0117 5.9188 16.6239 7.27957 17.8328 7.82922C18.2385 8.01069 18.6895 8.04443 19.1283 8.03919C20.4184 8.03974 21.7082 8.037 22.9983 8.04056C23.0005 10.357 23.0002 12.6737 22.9983 14.9904C21.7353 14.8618 20.4349 14.9731 19.2415 15.4235C17.6516 16.0132 16.2625 17.1276 15.3439 18.5536C12.6119 18.5588 9.87991 18.5522 7.14793 18.5569C6.59776 18.5527 6.0736 18.8466 5.75258 19.2866C5.39621 19.7551 5.32521 20.4092 5.53135 20.9553C5.78763 21.5995 6.45107 22.066 7.14955 22.0584C9.46923 22.0619 11.789 22.0589 14.1087 22.0597C13.9456 23.9156 14.4014 25.8312 15.4815 27.3598C12.1831 27.3604 8.88475 27.3604 5.58613 27.3598C5.14122 27.3653 4.70918 27.2239 4.31582 27.0251C3.52931 26.6243 2.84702 26.0114 2.38098 25.2603C2.0811 24.7978 1.9059 24.2523 1.9122 23.6988C1.91113 17.4121 1.9125 11.1255 1.91165 4.83849C1.87274 3.7724 2.40976 2.75698 3.15319 2.02178C3.67319 1.51874 4.31823 1.09551 5.05593 1.02809M6.8848 11.568C6.29182 11.656 5.76771 12.0804 5.53853 12.6314C5.31512 13.1997 5.39901 13.8891 5.78963 14.3658C6.11692 14.7888 6.63835 15.0575 7.17676 15.049C10.6941 15.05 14.2118 15.0512 17.7295 15.0484C18.5664 15.057 19.3376 14.3744 19.4472 13.5484C19.6382 12.5445 18.7701 11.5376 17.7571 11.5464C14.285 11.5415 10.8128 11.5459 7.34064 11.5443C7.18819 11.544 7.03525 11.544 6.88477 11.5681L6.8848 11.568ZM17.7289 1.02795H18.0077C18.7438 1.15952 19.2934 1.71523 19.8556 2.16453C20.8316 3.01078 21.854 3.83099 22.6389 4.86609C22.9487 5.25537 23.046 5.75563 22.9983 6.24253C21.6172 6.24554 20.2361 6.24472 18.8553 6.24283C18.6232 6.24804 18.4118 6.11811 18.275 5.93719C17.9348 5.53393 17.7577 5.00486 17.7303 4.4824C17.727 3.33078 17.7297 2.17943 17.7289 1.02806L17.7289 1.02795ZM21.5367 16.7566C21.7363 16.7426 21.9443 16.7506 22.1389 16.7333C22.7864 16.7481 23.4394 16.8336 24.0519 17.0502C25.5524 17.5011 26.8239 18.6064 27.5608 19.9809C28.3308 21.4585 28.5038 23.2499 27.9679 24.8339C27.4588 26.511 26.1496 27.9129 24.5363 28.5832C23.0088 29.2246 21.2275 29.2285 19.6964 28.5851C18.326 28.0247 17.1818 26.9293 16.5483 25.5921C15.874 24.1534 15.7476 22.4544 16.2646 20.9464C16.8496 19.0436 18.4637 17.5154 20.3714 16.9772C20.6834 16.8963 21.0041 16.8316 21.3191 16.7814C21.3906 16.7707 21.4715 16.7869 21.5367 16.7565M21.2057 19.3139C21.1857 20.2136 21.217 21.1155 21.1901 22.0147C20.5166 22.0202 19.8201 21.996 19.1607 22.0385C19.079 22.0026 18.9905 22.0465 18.905 22.0259C18.559 22.0174 18.1391 22.0232 17.9052 22.339C17.4485 22.8075 17.7778 23.6732 18.4116 23.7634C18.698 23.7861 18.9861 23.7601 19.2699 23.784C19.3296 23.7445 19.4201 23.8147 19.4804 23.776C20.0528 23.8034 20.6279 23.7867 21.2017 23.7939C21.1995 24.6667 21.1997 25.5395 21.2008 26.4121C21.1923 26.8754 21.6177 27.311 22.0871 27.2794C22.5323 27.2898 22.9396 26.8861 22.9413 26.4395C22.952 25.5508 22.9583 24.6618 22.9671 23.773C23.8991 23.7643 24.832 23.7867 25.7635 23.7615C26.1464 23.6667 26.463 23.3084 26.4513 22.9037C26.4642 22.5397 26.2054 22.2071 25.8745 22.0783C25.6157 22.0013 25.3413 22.0443 25.0768 22.0342C24.3739 22.0333 23.6708 22.0322 22.9676 22.035C22.9575 21.146 22.9537 20.257 22.9413 19.368C22.9432 18.9823 22.6423 18.6476 22.2861 18.5371C21.7861 18.4201 21.2403 18.7959 21.2058 19.314L21.2057 19.3139Z" fill="#FF6B00"/>
</svg>
