<svg width="60" height="79" viewBox="0 0 60 79" fill="none" xmlns="http://www.w3.org/2000/svg">
<path d="M9.21875 58.0791H7.3457C7.59635 58.193 8.08398 58.4072 8.80859 58.7217C8.6582 58.9541 8.42578 59.305 8.11133 59.7744H9.51953V61.3057H6.86719V62.1943H9.27344V63.7256H6.86719V67.0205C6.86719 67.4443 6.77604 67.7793 6.59375 68.0254C6.41602 68.2715 6.16536 68.4264 5.8418 68.4902C5.52279 68.5586 4.93034 68.5928 4.06445 68.5928C4.02344 68.0505 3.93229 67.5378 3.79102 67.0547L3.50391 67.6631C3.14844 67.4443 2.66081 67.2165 2.04102 66.9795C2.49674 66.1227 2.89323 65.1201 3.23047 63.9717L4.76172 64.4365C4.51562 65.2614 4.22396 66.0589 3.88672 66.8291C4.11003 66.8473 4.33333 66.8564 4.55664 66.8564C4.90299 66.8564 5.08073 66.6514 5.08984 66.2412V63.7256H2.51953V62.1943H5.08984V61.3057H2.30078V59.7744H3.77051C3.5791 59.4007 3.38086 59.0452 3.17578 58.708L4.66602 58.1064C5.0306 58.7126 5.33594 59.2686 5.58203 59.7744H6.18359C6.63477 59.0133 6.94466 58.4482 7.11328 58.0791H2.54688V56.5479H4.98047C4.85742 56.2152 4.73893 55.9144 4.625 55.6455L6.51172 55.3037C6.64388 55.6592 6.7806 56.0739 6.92188 56.5479H9.21875V58.0791ZM15.7812 61.5654H14.7422V68.6748H12.9375V61.5654H11.7344V62.3447C11.7344 65.2295 11.11 67.4307 9.86133 68.9482C9.24154 68.4105 8.66732 67.9548 8.13867 67.5811C8.6582 67.1208 9.0638 66.5488 9.35547 65.8652L7.96094 66.6514C7.64193 65.9313 7.29557 65.2568 6.92188 64.6279L8.23438 63.9717C8.55794 64.4092 8.93392 65.0358 9.3623 65.8516C9.74056 64.9629 9.92969 63.8851 9.92969 62.6182V56.4658C12.0078 56.2562 13.6986 55.9235 15.002 55.4678L15.7812 57.2588C14.5508 57.5869 13.2018 57.8193 11.7344 57.9561V59.7744H15.7812V61.5654ZM16.7793 68.8662C16.6243 68.2373 16.4329 67.6038 16.2051 66.9658C16.6426 66.583 17.0254 66.1592 17.3535 65.6943C16.9115 64.9971 16.5332 64.1357 16.2188 63.1104L17.627 62.4951C17.8138 63.0693 18.0143 63.5775 18.2285 64.0195C18.4518 63.4271 18.6113 62.7868 18.707 62.0986H16.6562V60.3213L18.2422 58.0518H16.3828V56.3838H20.3477V57.9561L18.543 60.4307H20.375V62.126C20.179 63.4294 19.835 64.596 19.3428 65.626C20.1676 66.4098 21.5872 66.8018 23.6016 66.8018V65.9404H20.5391V64.6963H23.6016V63.958H21.0039V62.7002H23.6016V61.9756H21.1953V60.7861H23.6016V59.9932H20.4844V58.5986H23.6016V57.8057H21.1953V56.4658H23.6016V55.3721H25.3516V56.4658H28.8242V58.5986H29.6582V59.9932H28.8242V61.9756H25.3516V62.7002H28.8242V63.958H25.3516V64.6963H29.2891V65.9404H25.3516V66.7949L29.8223 66.7334C29.6582 67.2712 29.5078 67.8454 29.3711 68.4561H23.6699C22.1706 68.4561 21.0199 68.292 20.2178 67.9639C19.4157 67.6357 18.8483 67.3236 18.5156 67.0273C18.028 67.7201 17.4492 68.333 16.7793 68.8662ZM27.2109 57.8057H25.3516V58.5986H27.2109V57.8057ZM25.3516 60.7861H27.2109V59.9932H25.3516V60.7861ZM35.3594 55.9053H43.6172V57.5869H40.001L39.7549 58.8994H43.084V65.1475H41.2246V60.54H37.082V65.2432H35.2227V58.8994H37.6973L37.9434 57.5869H35.3594V55.9053ZM30.5742 67.2393L30.1914 65.1885L31.5586 64.8877V58.1338H30.3281V56.2607H34.7578V58.1338H33.4316V64.4297C33.8919 64.3112 34.3568 64.1859 34.8262 64.0537C34.7988 64.7008 34.7852 65.389 34.7852 66.1182C33.2539 66.4827 31.8503 66.8564 30.5742 67.2393ZM38.3672 61.3877H40.1719C40.1628 62.5908 39.9964 63.6549 39.6729 64.5801C41.0537 65.4414 42.446 66.3825 43.8496 67.4033L42.6875 68.8799C41.7122 68.0732 40.4681 67.1322 38.9551 66.0566C38.1257 67.3008 36.7949 68.2601 34.9629 68.9346C34.6257 68.2327 34.2793 67.613 33.9238 67.0752C35.6146 66.6696 36.7767 66.0293 37.4102 65.1543C38.0482 64.2793 38.3672 63.0238 38.3672 61.3877ZM45.6133 68.8252V56.1924H56.3867V68.8252H54.4453V67.8955H47.5547V68.8252H45.6133ZM54.4453 57.9971H47.5547V59.501H54.4453V57.9971ZM47.5547 62.7549H54.4453V61.251H47.5547V62.7549ZM47.5547 66.0908H54.4453V64.5049H47.5547V66.0908Z" fill="#FFEA7A"/>
<path d="M18.0899 1.64471H35.5365C35.5417 3.57548 35.5282 5.50624 35.5436 7.43705C35.619 9.47007 36.5984 11.6473 38.5327 12.5267C39.1819 12.8171 39.9033 12.8711 40.6055 12.8627C42.6697 12.8636 44.7334 12.8592 46.7974 12.8649C46.8009 16.5712 46.8005 20.2779 46.7974 23.9846C44.7767 23.7789 42.696 23.9569 40.7866 24.6777C38.2427 25.6211 36.0203 27.4041 34.5505 29.6857C30.1793 29.6941 25.8081 29.6836 21.4369 29.691C20.5566 29.6844 19.718 30.1546 19.2043 30.8585C18.6341 31.6081 18.5205 32.6547 18.8503 33.5284C19.2604 34.5592 20.3219 35.3056 21.4395 35.2934C25.151 35.2991 28.8625 35.2942 32.5741 35.2956C32.3131 38.265 33.0425 41.33 34.7706 43.7757C29.4932 43.7766 24.2158 43.7766 18.938 43.7757C18.2261 43.7845 17.5349 43.5582 16.9055 43.2402C15.6471 42.5989 14.5554 41.6182 13.8098 40.4164C13.3299 39.6764 13.0496 38.8036 13.0597 37.9181C13.058 27.8594 13.0602 17.8007 13.0588 7.74157C12.9966 6.03583 13.8558 4.41116 15.0453 3.23483C15.8773 2.42997 16.9094 1.7528 18.0897 1.64493M21.0159 18.5088C20.0671 18.6496 19.2285 19.3286 18.8618 20.2102C18.5044 21.1195 18.6386 22.2226 19.2636 22.9853C19.7873 23.6621 20.6216 24.0919 21.483 24.0784C27.1108 24.0801 32.7391 24.0819 38.3674 24.0775C39.7065 24.0911 40.9403 22.999 41.1157 21.6774C41.4214 20.0712 40.0323 18.4602 38.4116 18.4743C32.8561 18.4664 27.3007 18.4734 21.7452 18.4708C21.5013 18.4703 21.2566 18.4703 21.0158 18.509L21.0159 18.5088ZM38.3665 1.64471H38.8125C39.9902 1.85522 40.8696 2.74436 41.7692 3.46323C43.3307 4.81723 44.9667 6.12958 46.2224 7.78573C46.718 8.40857 46.8738 9.209 46.7975 9.98803C44.5877 9.99286 42.378 9.99154 40.1687 9.98852C39.7973 9.99685 39.459 9.78897 39.2402 9.49949C38.6958 8.85428 38.4126 8.00777 38.3686 7.17182C38.3634 5.32923 38.3678 3.48708 38.3664 1.64489L38.3665 1.64471ZM44.4589 26.8105C44.7782 26.7882 45.1111 26.8009 45.4225 26.7732C46.4585 26.7969 47.5033 26.9337 48.4832 27.2802C50.8841 28.0018 52.9184 29.7702 54.0974 31.9695C55.3295 34.3336 55.6063 37.1999 54.7488 39.7342C53.9343 42.4176 51.8395 44.6607 49.2582 45.7331C46.8143 46.7594 43.9641 46.7656 41.5145 45.7361C39.3219 44.8396 37.4911 43.0869 36.4775 40.9474C35.3986 38.6455 35.1963 35.927 36.0235 33.5142C36.9595 30.4698 39.5421 28.0246 42.5944 27.1635C43.0936 27.034 43.6067 26.9305 44.1107 26.8503C44.2252 26.8332 44.3546 26.8591 44.459 26.8103M43.9294 30.9023C43.8973 32.3418 43.9473 33.7848 43.9044 35.2235C42.8267 35.2322 41.7123 35.1936 40.6574 35.2617C40.5266 35.2042 40.385 35.2743 40.2481 35.2415C39.6946 35.2278 39.0227 35.2371 38.6486 35.7424C37.9178 36.492 38.4446 37.8772 39.4587 38.0214C39.917 38.0578 40.378 38.0162 40.832 38.0543C40.9276 37.9912 41.0723 38.1035 41.1688 38.0417C42.0846 38.0855 43.0049 38.0588 43.9228 38.0702C43.9193 39.4667 43.9198 40.8633 43.9215 42.2593C43.9078 43.0006 44.5886 43.6975 45.3395 43.6471C46.0518 43.6637 46.7035 43.0177 46.7063 42.3032C46.7234 40.8812 46.7335 39.4588 46.7475 38.0368C48.2387 38.0228 49.7314 38.0587 51.2217 38.0184C51.8345 37.8667 52.341 37.2934 52.3222 36.646C52.3428 36.0634 51.9288 35.5314 51.3994 35.3253C50.9854 35.202 50.5463 35.2709 50.1231 35.2546C48.9985 35.2533 47.8735 35.2516 46.7484 35.256C46.7322 33.8336 46.7261 32.4112 46.7063 30.9888C46.7094 30.3717 46.2278 29.8361 45.658 29.6594C44.858 29.4721 43.9847 30.0734 43.9295 30.9025L43.9294 30.9023Z" fill="#FFEA7A"/>
</svg>
