<svg width="42" height="42" viewBox="0 0 42 42" fill="none" xmlns="http://www.w3.org/2000/svg">
<path d="M36.7499 19.194H34.0829V14.133C34.0829 12.852 33.0329 11.802 31.7519 11.802H19.9079C19.5509 11.802 19.2149 11.655 18.9839 11.424C18.7319 11.172 18.6059 10.836 18.6059 10.5V10.521C18.6059 9.912 18.3539 9.303 17.9339 8.883C17.4929 8.442 16.9049 8.19 16.2959 8.19H7.93793C7.32893 8.19 6.71993 8.442 6.29993 8.862C5.85893 9.303 5.62793 9.891 5.62793 10.5V30.198C5.62793 31.479 6.67793 32.529 7.95893 32.529H31.7939C33.0749 32.529 34.5239 31.479 34.9859 30.198L38.2199 21.525C38.6819 20.244 38.0309 19.194 36.7499 19.194V19.194ZM16.1909 10.605C16.2539 12.621 17.8919 14.238 19.9079 14.238H31.6679V19.215H12.9149C11.6339 19.215 10.1849 20.265 9.72293 21.546L8.02193 26.082V10.605H16.1909V10.605Z" fill="#6F6F6F"/>
</svg>
