<svg width="28" height="28" viewBox="0 0 28 28" fill="none" xmlns="http://www.w3.org/2000/svg">
<path d="M13.6921 18.7059L10.1019 14.0075L13.8136 9.30927C13.9251 9.17471 13.9868 9.0058 13.9882 8.83104C13.9884 8.71951 13.964 8.60932 13.9167 8.50829C13.8695 8.40726 13.8006 8.31787 13.7149 8.24648C13.6382 8.18256 13.5496 8.13441 13.4543 8.10477C13.3589 8.07513 13.2587 8.06459 13.1593 8.07376C13.0598 8.08292 12.9632 8.11161 12.8749 8.15819C12.7866 8.20476 12.7083 8.26829 12.6446 8.34516L8.5382 13.5218C8.30789 13.8018 8.30789 14.2057 8.5382 14.4857L12.5156 19.6623C12.5782 19.7403 12.6557 19.8051 12.7434 19.8531C12.8312 19.9011 12.9276 19.9312 13.0271 19.9418C13.1265 19.9524 13.2271 19.9432 13.323 19.9148C13.4189 19.8864 13.5083 19.8393 13.5859 19.7762C13.6633 19.713 13.7275 19.6352 13.7748 19.5471C13.822 19.4591 13.8514 19.3626 13.8613 19.2631C13.8712 19.1637 13.8613 19.0633 13.8323 18.9677C13.8032 18.872 13.7556 18.7831 13.6921 18.7059ZM14.1628 13.5218C13.9325 13.8018 13.9325 14.2057 14.1628 14.4857L18.1402 19.6623C18.2028 19.7403 18.2803 19.8051 18.368 19.8531C18.4558 19.9011 18.5522 19.9312 18.6517 19.9418C18.7511 19.9523 18.8517 19.9432 18.9476 19.9148C19.0435 19.8863 19.1328 19.8393 19.2105 19.7762C19.2885 19.7135 19.3533 19.6361 19.4012 19.5483C19.4492 19.4605 19.4793 19.3642 19.4899 19.2647C19.5005 19.1652 19.4913 19.0647 19.4629 18.9688C19.4344 18.8729 19.3874 18.7835 19.3243 18.7059L15.7265 14.0075L19.4382 9.30927C19.5497 9.17471 19.6114 9.0058 19.6128 8.83104C19.6129 8.72536 19.591 8.62082 19.5485 8.52409C19.5059 8.42736 19.4436 8.34059 19.3656 8.26931C19.2876 8.19803 19.1956 8.14383 19.0954 8.11016C18.9952 8.07649 18.8891 8.0641 18.7839 8.07379C18.6845 8.08295 18.5878 8.11164 18.4995 8.15821C18.4112 8.20477 18.3329 8.2683 18.2692 8.34516L14.1628 13.5218Z" fill="#6F6F6F"/>
<path d="M14 1.73633C15.6543 1.73633 17.2621 2.06172 18.7742 2.70156C20.2344 3.31953 21.5469 4.20274 22.6707 5.3293C23.7973 6.45313 24.6805 7.76563 25.2984 9.22578C25.9383 10.7379 26.2637 12.3457 26.2637 14C26.2637 15.6543 25.9383 17.2621 25.2984 18.7742C24.6805 20.2344 23.7973 21.5469 22.6707 22.6734C21.5441 23.8 20.2344 24.6832 18.7715 25.3012C17.2621 25.9383 15.6543 26.2637 14 26.2637C12.3457 26.2637 10.7379 25.9383 9.22578 25.2984C7.76562 24.6805 6.45312 23.7973 5.32656 22.6707C4.2 21.5441 3.3168 20.2344 2.69883 18.7715C2.05898 17.2594 1.73359 15.6516 1.73359 13.9973C1.73359 12.343 2.05898 10.7352 2.69883 9.22305C3.31953 7.76562 4.20273 6.45313 5.3293 5.3293C6.45586 4.20274 7.76562 3.31953 9.22851 2.70156C10.7379 2.06172 12.3457 1.73633 14 1.73633ZM14 24.4863C19.7832 24.4863 24.4863 19.7832 24.4863 14C24.4863 8.2168 19.7832 3.51367 14 3.51367C8.2168 3.51367 3.51367 8.2168 3.51367 14C3.51367 19.7832 8.2168 24.4863 14 24.4863Z" fill="#6F6F6F"/>
</svg>
