<svg width="28" height="28" viewBox="0 0 28 28" fill="none" xmlns="http://www.w3.org/2000/svg">
<path d="M14.3079 9.29411L17.8981 13.9925L14.1864 18.6907C14.0749 18.8253 14.0132 18.9942 14.0118 19.169C14.0116 19.2805 14.036 19.3907 14.0833 19.4917C14.1305 19.5927 14.1994 19.6821 14.2851 19.7535C14.3618 19.8174 14.4504 19.8656 14.5457 19.8952C14.6411 19.9249 14.7413 19.9354 14.8407 19.9262C14.9402 19.9171 15.0368 19.8884 15.1251 19.8418C15.2134 19.7952 15.2917 19.7317 15.3554 19.6548L19.4618 14.4782C19.6921 14.1982 19.6921 13.7943 19.4618 13.5143L15.4844 8.33767C15.4218 8.25969 15.3443 8.19485 15.2566 8.14689C15.1688 8.09893 15.0724 8.0688 14.9729 8.05821C14.8735 8.04763 14.7729 8.05681 14.677 8.08523C14.5811 8.11365 14.4917 8.16074 14.4141 8.2238C14.3367 8.28698 14.2725 8.36482 14.2252 8.45286C14.178 8.54091 14.1486 8.63742 14.1387 8.73685C14.1288 8.8363 14.1387 8.93672 14.1677 9.03234C14.1968 9.12797 14.2444 9.21693 14.3079 9.29411ZM13.8372 14.4782C14.0675 14.1982 14.0675 13.7943 13.8372 13.5143L9.85981 8.33767C9.79717 8.25969 9.71974 8.19486 9.63196 8.14691C9.54418 8.09895 9.4478 8.06881 9.34833 8.05823C9.24887 8.04765 9.1483 8.05683 9.0524 8.08525C8.95649 8.11366 8.86715 8.16075 8.78951 8.2238C8.71153 8.28645 8.64671 8.36389 8.59876 8.45167C8.55081 8.53945 8.52068 8.63585 8.51011 8.73531C8.49953 8.83477 8.50872 8.93534 8.53713 9.03124C8.56555 9.12715 8.61264 9.21648 8.6757 9.29413L12.2735 13.9925L8.56181 18.6907C8.45029 18.8253 8.38862 18.9942 8.38721 19.169C8.38705 19.2746 8.40895 19.3792 8.45152 19.4759C8.49408 19.5726 8.55636 19.6594 8.63438 19.7307C8.7124 19.802 8.80444 19.8562 8.90461 19.8898C9.00478 19.9235 9.11088 19.9359 9.21611 19.9262C9.31554 19.917 9.41218 19.8884 9.5005 19.8418C9.58882 19.7952 9.66709 19.7317 9.73083 19.6548L13.8372 14.4782Z" fill="#6F6F6F"/>
<path d="M14 26.2637C12.3457 26.2637 10.7379 25.9383 9.22578 25.2984C7.76562 24.6805 6.45312 23.7973 5.3293 22.6707C4.20273 21.5469 3.31953 20.2344 2.70156 18.7742C2.06172 17.2621 1.73633 15.6543 1.73633 14C1.73633 12.3457 2.06172 10.7379 2.70156 9.22578C3.31953 7.76562 4.20273 6.45312 5.3293 5.32656C6.45586 4.2 7.76563 3.3168 9.22852 2.69883C10.7379 2.06172 12.3457 1.73633 14 1.73633C15.6543 1.73633 17.2621 2.06172 18.7742 2.70156C20.2344 3.31953 21.5469 4.20273 22.6734 5.3293C23.8 6.45586 24.6832 7.76562 25.3012 9.22852C25.941 10.7406 26.2664 12.3484 26.2664 14.0027C26.2664 15.657 25.941 17.2648 25.3012 18.777C24.6805 20.2344 23.7973 21.5469 22.6707 22.6707C21.5441 23.7973 20.2344 24.6805 18.7715 25.2984C17.2621 25.9383 15.6543 26.2637 14 26.2637ZM14 3.51367C8.2168 3.51367 3.51367 8.2168 3.51367 14C3.51367 19.7832 8.2168 24.4863 14 24.4863C19.7832 24.4863 24.4863 19.7832 24.4863 14C24.4863 8.2168 19.7832 3.51367 14 3.51367Z" fill="#6F6F6F"/>
</svg>
