<svg width="28" height="28" viewBox="0 0 28 28" fill="none" xmlns="http://www.w3.org/2000/svg">
<path d="M13.9752 13.9754L14.0244 14.0247L13.9752 13.9754ZM14.0299 13.97L13.9697 14.0301C13.9916 14.011 14.0107 13.9918 14.0299 13.97Z" fill="white"/>
<path d="M17.2185 13.4067L17.1692 13.3575L16.5731 12.7614L12.0423 8.23057C11.7032 7.88877 11.1454 7.88877 10.8063 8.22783C10.4673 8.56963 10.4673 9.12744 10.8063 9.46651L15.3372 14.0001L10.8036 18.531C10.4646 18.8728 10.4646 19.4306 10.8036 19.7696C11.1454 20.1087 11.7032 20.1087 12.0423 19.7696L16.5731 15.2388L17.161 14.6509L17.2212 14.5907C17.3634 14.4349 17.4481 14.2298 17.4481 14.0028C17.4509 13.7731 17.3634 13.5626 17.2185 13.4067Z" fill="#6F6F6F"/>
<path d="M14 26.2637C12.3457 26.2637 10.7379 25.9383 9.22578 25.2984C7.76562 24.6805 6.45312 23.7973 5.3293 22.6707C4.20273 21.5469 3.31953 20.2344 2.70156 18.7742C2.06172 17.2621 1.73633 15.6543 1.73633 14C1.73633 12.3457 2.06172 10.7379 2.70156 9.22578C3.31953 7.76562 4.20273 6.45312 5.3293 5.32656C6.45586 4.2 7.76562 3.3168 9.22852 2.69883C10.7379 2.06172 12.3457 1.73633 14 1.73633C15.6543 1.73633 17.2621 2.06172 18.7742 2.70156C20.2344 3.31953 21.5469 4.20273 22.6734 5.3293C23.8 6.45586 24.6832 7.76562 25.3012 9.22852C25.941 10.7406 26.2664 12.3484 26.2664 14.0027C26.2664 15.657 25.941 17.2648 25.3012 18.777C24.6805 20.2344 23.7973 21.5469 22.6707 22.6707C21.5441 23.7973 20.2344 24.6805 18.7715 25.2984C17.2621 25.9383 15.6543 26.2637 14 26.2637ZM14 3.51367C8.2168 3.51367 3.51367 8.2168 3.51367 14C3.51367 19.7832 8.2168 24.4863 14 24.4863C19.7832 24.4863 24.4863 19.7832 24.4863 14C24.4863 8.2168 19.7832 3.51367 14 3.51367Z" fill="#6F6F6F"/>
</svg>
