<svg width="28" height="28" viewBox="0 0 28 28" fill="none" xmlns="http://www.w3.org/2000/svg">
<path d="M14.0248 14.0246L13.9756 13.9753L14.0248 14.0246ZM13.9701 14.03L14.0303 13.9699C14.0084 13.989 13.9893 14.0082 13.9701 14.03Z" fill="white"/>
<path d="M10.7815 14.5933L10.8308 14.6425L11.4269 15.2386L15.9577 19.7694C16.2968 20.1112 16.8546 20.1112 17.1937 19.7722C17.5327 19.4304 17.5327 18.8726 17.1937 18.5335L12.6628 13.9999L17.1964 9.46904C17.5354 9.12724 17.5354 8.56943 17.1964 8.23037C16.8546 7.89131 16.2968 7.89131 15.9577 8.23037L11.4269 12.7612L10.839 13.3491L10.7788 13.4093C10.6366 13.5651 10.5519 13.7702 10.5519 13.9972C10.5491 14.2269 10.6366 14.4374 10.7815 14.5933Z" fill="#A0A0A0"/>
<path d="M14 1.73633C15.6543 1.73633 17.2621 2.06172 18.7742 2.70156C20.2344 3.31953 21.5469 4.20274 22.6707 5.3293C23.7973 6.45312 24.6805 7.76562 25.2984 9.22578C25.9383 10.7379 26.2637 12.3457 26.2637 14C26.2637 15.6543 25.9383 17.2621 25.2984 18.7742C24.6805 20.2344 23.7973 21.5469 22.6707 22.6734C21.5441 23.8 20.2344 24.6832 18.7715 25.3012C17.2621 25.9383 15.6543 26.2637 14 26.2637C12.3457 26.2637 10.7379 25.9383 9.22578 25.2984C7.76562 24.6805 6.45312 23.7973 5.32656 22.6707C4.2 21.5441 3.31679 20.2344 2.69883 18.7715C2.05898 17.2594 1.73359 15.6516 1.73359 13.9973C1.73359 12.343 2.05898 10.7352 2.69883 9.22305C3.31953 7.76562 4.20273 6.45312 5.32929 5.3293C6.45586 4.20274 7.76562 3.31953 9.22851 2.70156C10.7379 2.06172 12.3457 1.73633 14 1.73633ZM14 24.4863C19.7832 24.4863 24.4863 19.7832 24.4863 14C24.4863 8.2168 19.7832 3.51367 14 3.51367C8.21679 3.51367 3.51367 8.2168 3.51367 14C3.51367 19.7832 8.21679 24.4863 14 24.4863Z" fill="#A0A0A0"/>
</svg>
