<svg width="20" height="20" viewBox="0 0 20 20" fill="none" xmlns="http://www.w3.org/2000/svg">
<g clip-path="url(#clip0_614_10)">
<path d="M11.4338 10.0116L19.0156 2.43005C19.3984 2.04722 19.3984 1.41641 19.0156 1.03358L18.9742 0.992169C18.5914 0.609341 17.9606 0.609341 17.5777 0.992169L9.9959 8.58434L2.41434 0.992169C2.03151 0.609341 1.4007 0.609341 1.01787 0.992169L0.97646 1.03358C0.58353 1.41641 0.58353 2.04722 0.97646 2.43005L8.55828 10.0119L0.97646 17.5934C0.593884 17.9763 0.593884 18.6071 0.97646 18.9899L1.01787 19.0313C1.4007 19.4141 2.03151 19.4141 2.41434 19.0313L9.9959 11.4495L17.5777 19.0311C17.9606 19.4139 18.5914 19.4139 18.9742 19.0311L19.0156 18.9896C19.3984 18.6068 19.3984 17.976 19.0156 17.5932L11.4338 10.0116Z" fill="#FF993C"/>
</g>
<defs>
<clipPath id="clip0_614_10">
<rect width="20" height="20" fill="white"/>
</clipPath>
</defs>
</svg>
