<svg width="20" height="20" viewBox="0 0 20 20" fill="none" xmlns="http://www.w3.org/2000/svg">
<g clip-path="url(#clip0_614_8)">
<path d="M11.4338 10.0116L19.0157 2.43005C19.3985 2.04722 19.3985 1.41641 19.0157 1.03358L18.9742 0.992169C18.5914 0.609341 17.9606 0.609341 17.5778 0.992169L9.99597 8.58434L2.4144 0.992169C2.03157 0.609341 1.40076 0.609341 1.01793 0.992169L0.976521 1.03358C0.583591 1.41641 0.583591 2.04722 0.976521 2.43005L8.55834 10.0119L0.976521 17.5934C0.593945 17.9763 0.593945 18.6071 0.976521 18.9899L1.01793 19.0313C1.40076 19.4141 2.03157 19.4141 2.4144 19.0313L9.99597 11.4495L17.5778 19.0311C17.9606 19.4139 18.5914 19.4139 18.9742 19.0311L19.0157 18.9896C19.3985 18.6068 19.3985 17.976 19.0157 17.5932L11.4338 10.0116Z" fill="#8D8D8D"/>
</g>
<defs>
<clipPath id="clip0_614_8">
<rect width="20" height="20" fill="white"/>
</clipPath>
</defs>
</svg>
