<svg width="36" height="36" viewBox="0 0 36 36" fill="none" xmlns="http://www.w3.org/2000/svg">
<g clip-path="url(#clip0_612_13)">
<path d="M14.0864 10.7H11.2464L6.56641 26H8.94641L10.2664 21.5H14.9464L16.3264 26H18.7664L14.0864 10.7ZM10.6264 19.72L11.8464 15.7C12.1064 14.76 12.3464 13.64 12.5664 12.7H12.6064C12.8264 13.64 13.0864 14.72 13.3664 15.72L14.5664 19.72H10.6264ZM28.4891 19.22C28.4891 16.88 27.5891 14.74 24.3491 14.74C22.8691 14.74 21.5691 15.16 20.7891 15.66L21.2691 17.2C21.9691 16.74 22.9691 16.44 23.9491 16.44C26.1691 16.44 26.1691 18.08 26.1691 18.9C22.3891 18.9 20.0091 20.26 20.0091 23C20.0091 24.7 21.1891 26.22 23.2491 26.22C24.6291 26.22 25.7091 25.58 26.3291 24.72H26.3891L26.5491 26H28.6491C28.5091 25.28 28.4891 24.32 28.4891 23.38V19.22ZM26.2291 22.28C26.2291 23.56 25.1891 24.52 23.9291 24.52C23.0691 24.52 22.3091 23.98 22.3091 22.76C22.3091 20.8 24.4091 20.46 26.2291 20.46V22.28Z" fill="#6F6F6F"/>
</g>
<defs>
<clipPath id="clip0_612_13">
<rect width="36" height="36" fill="white"/>
</clipPath>
</defs>
</svg>
