<svg width="20" height="20" viewBox="0 0 20 20" fill="none" xmlns="http://www.w3.org/2000/svg">
<g clip-path="url(#clip0_614_5)">
<path d="M10.0243 10.1997C9.70087 10.2724 9.34515 10.038 9.08645 9.77766L1.11189 1.78208C1.01538 1.68525 0.93889 1.57037 0.886783 1.44398C0.834676 1.3176 0.807973 1.18218 0.808198 1.04548C0.808424 0.908773 0.835573 0.773451 0.888096 0.647237C0.940619 0.521024 1.01749 0.406393 1.11431 0.309887C1.21114 0.213381 1.32602 0.136889 1.45241 0.0847825C1.57879 0.0326757 1.7142 0.00597425 1.85091 0.00619947C1.98761 0.00642468 2.12294 0.0335723 2.24915 0.0860953C2.37536 0.138618 2.49 0.215486 2.5865 0.312311L10.0065 7.92145L17.4135 0.312311C17.5583 0.164871 17.7439 0.0640157 17.9463 0.0226603C18.1488 -0.0186951 18.3591 0.00133211 18.5501 0.080178C18.7411 0.159024 18.9043 0.293099 19.0187 0.465232C19.133 0.637365 19.1934 0.839722 19.1921 1.04639C19.1922 1.18272 19.1654 1.31774 19.1132 1.44371C19.0611 1.56967 18.9846 1.68411 18.8881 1.78046L10.9249 9.77766C10.671 9.99756 10.3476 10.2546 10.0243 10.1997Z" fill="#8D8D8D"/>
<path d="M9.08807 19.5631L1.11189 11.5692C1.01538 11.4723 0.93889 11.3575 0.886783 11.2311C0.834676 11.1047 0.807973 10.9693 0.808198 10.8326C0.808424 10.6959 0.835573 10.5605 0.888096 10.4343C0.940619 10.3081 1.01749 10.1935 1.11431 10.097C1.21114 10.0005 1.32602 9.92399 1.45241 9.87188C1.57879 9.81977 1.7142 9.79307 1.85091 9.7933C1.98761 9.79352 2.12294 9.82067 2.24915 9.87319C2.37536 9.92572 2.49 10.0026 2.5865 10.0994L10.0065 17.7069L17.4135 10.0978C17.5583 9.95035 17.7439 9.8495 17.9463 9.80814C18.1488 9.76678 18.3591 9.78681 18.5501 9.86566C18.7411 9.94451 18.9043 10.0786 19.0187 10.2507C19.133 10.4228 19.1934 10.6252 19.1921 10.8319C19.1922 10.9682 19.1654 11.1032 19.1132 11.2292C19.0611 11.3552 18.9846 11.4696 18.8881 11.5659L10.9249 19.5631C10.671 19.7847 10.3476 20.0417 10.0243 19.9868C9.70087 20.0595 9.34515 19.8202 9.08807 19.5631V19.5631Z" fill="#8D8D8D"/>
</g>
<defs>
<clipPath id="clip0_614_5">
<rect width="20" height="20" fill="white" transform="translate(0 20) rotate(-90)"/>
</clipPath>
</defs>
</svg>
