<svg width="20" height="20" viewBox="0 0 20 20" fill="none" xmlns="http://www.w3.org/2000/svg">
<g clip-path="url(#clip0_614_39)">
<path d="M10.0243 10.1997C9.7009 10.2724 9.34518 10.038 9.08648 9.77766L1.11192 1.78208C1.01541 1.68525 0.938921 1.57037 0.886814 1.44398C0.834707 1.3176 0.808004 1.18218 0.808229 1.04548C0.808454 0.908773 0.835603 0.773451 0.888126 0.647237C0.940649 0.521024 1.01752 0.406393 1.11434 0.309887C1.21117 0.213381 1.32605 0.136889 1.45244 0.0847825C1.57882 0.0326757 1.71423 0.00597425 1.85094 0.00619947C1.98764 0.00642468 2.12297 0.0335723 2.24918 0.0860953C2.37539 0.138618 2.49003 0.215486 2.58653 0.312311L10.0065 7.92145L17.4135 0.312311C17.5583 0.164871 17.7439 0.0640157 17.9464 0.0226603C18.1489 -0.0186951 18.3591 0.00133211 18.5501 0.080178C18.7412 0.159024 18.9043 0.293099 19.0187 0.465232C19.1331 0.637365 19.1934 0.839722 19.1921 1.04639C19.1922 1.18272 19.1654 1.31774 19.1133 1.44371C19.0611 1.56967 18.9846 1.68411 18.8881 1.78046L10.9249 9.77766C10.671 9.99756 10.3477 10.2546 10.0243 10.1997Z" fill="#FF993C"/>
<path d="M9.0881 19.5631L1.11192 11.5692C1.01541 11.4723 0.938921 11.3575 0.886814 11.2311C0.834707 11.1047 0.808004 10.9693 0.808229 10.8326C0.808454 10.6959 0.835603 10.5605 0.888126 10.4343C0.940649 10.3081 1.01752 10.1935 1.11434 10.097C1.21117 10.0005 1.32605 9.92399 1.45244 9.87188C1.57882 9.81977 1.71423 9.79307 1.85094 9.7933C1.98764 9.79352 2.12297 9.82067 2.24918 9.87319C2.37539 9.92572 2.49003 10.0026 2.58653 10.0994L10.0065 17.7069L17.4135 10.0978C17.5583 9.95035 17.7439 9.8495 17.9464 9.80814C18.1489 9.76678 18.3591 9.78681 18.5501 9.86566C18.7412 9.94451 18.9043 10.0786 19.0187 10.2507C19.1331 10.4228 19.1934 10.6252 19.1921 10.8319C19.1922 10.9682 19.1654 11.1032 19.1133 11.2292C19.0611 11.3552 18.9846 11.4696 18.8881 11.5659L10.9249 19.5631C10.671 19.7847 10.3477 20.0417 10.0243 19.9868C9.7009 20.0595 9.34518 19.8202 9.0881 19.5631V19.5631Z" fill="#FF993C"/>
</g>
<defs>
<clipPath id="clip0_614_39">
<rect width="20" height="20" fill="white" transform="translate(0 20) rotate(-90)"/>
</clipPath>
</defs>
</svg>
