<svg width="20" height="20" viewBox="0 0 20 20" fill="none" xmlns="http://www.w3.org/2000/svg">
<g clip-path="url(#clip0_614_2)">
<path d="M9.97575 9.80033C10.2991 9.72757 10.6548 9.96202 10.9136 10.2223L18.8881 18.2179C18.9846 18.3147 19.0611 18.4296 19.1132 18.556C19.1653 18.6824 19.192 18.8178 19.1918 18.9545C19.1916 19.0912 19.1644 19.2265 19.1119 19.3528C19.0594 19.479 18.9825 19.5936 18.8857 19.6901C18.7889 19.7866 18.674 19.8631 18.5476 19.9152C18.4212 19.9673 18.2858 19.994 18.1491 19.9938C18.0124 19.9936 17.8771 19.9664 17.7509 19.9139C17.6246 19.8614 17.51 19.7845 17.4135 19.6877L9.99353 12.0785L2.5865 19.6877C2.44168 19.8351 2.25615 19.936 2.05366 19.9773C1.85117 20.0187 1.64095 19.9987 1.44991 19.9198C1.25888 19.841 1.09572 19.7069 0.981349 19.5348C0.866974 19.3626 0.806583 19.1603 0.807911 18.9536C0.807807 18.8173 0.834604 18.6823 0.886766 18.5563C0.938927 18.4303 1.01543 18.3159 1.11189 18.2195L9.07513 10.2223C9.32899 10.0024 9.65237 9.74536 9.97575 9.80033Z" fill="#8D8D8D"/>
<path d="M10.9119 0.436862L18.8881 8.43083C18.9846 8.52765 19.0611 8.64254 19.1132 8.76892C19.1653 8.89531 19.192 9.03072 19.1918 9.16742C19.1916 9.30413 19.1644 9.43945 19.1119 9.56567C19.0594 9.69188 18.9825 9.80651 18.8857 9.90302C18.7889 9.99952 18.674 10.076 18.5476 10.1281C18.4212 10.1802 18.2858 10.2069 18.1491 10.2067C18.0124 10.2065 17.8771 10.1793 17.7509 10.1268C17.6246 10.0743 17.51 9.99742 17.4135 9.90059L9.99353 2.29307L2.5865 9.90221C2.44168 10.0496 2.25615 10.1505 2.05366 10.1919C1.85117 10.2332 1.64095 10.2132 1.44991 10.1343C1.25888 10.0555 1.09572 9.92142 0.981349 9.74929C0.866974 9.57715 0.806583 9.3748 0.807911 9.16813C0.807807 9.0318 0.834604 8.89678 0.886766 8.77081C0.938927 8.64485 1.01543 8.53041 1.11189 8.43406L9.07513 0.436862C9.32899 0.215346 9.65237 -0.0417414 9.97575 0.0132332C10.2991 -0.0595274 10.6548 0.179774 10.9119 0.436862V0.436862Z" fill="#8D8D8D"/>
</g>
<defs>
<clipPath id="clip0_614_2">
<rect width="20" height="20" fill="white" transform="translate(20) rotate(90)"/>
</clipPath>
</defs>
</svg>
