<svg width="20" height="20" viewBox="0 0 20 20" fill="none" xmlns="http://www.w3.org/2000/svg">
<g clip-path="url(#clip0_614_36)">
<path d="M9.97572 9.80033C10.2991 9.72757 10.6548 9.96202 10.9135 10.2223L18.8881 18.2179C18.9846 18.3147 19.0611 18.4296 19.1132 18.556C19.1653 18.6824 19.192 18.8178 19.1918 18.9545C19.1915 19.0912 19.1644 19.2265 19.1119 19.3528C19.0594 19.479 18.9825 19.5936 18.8857 19.6901C18.7888 19.7866 18.6739 19.8631 18.5476 19.9152C18.4212 19.9673 18.2858 19.994 18.1491 19.9938C18.0124 19.9936 17.877 19.9664 17.7508 19.9139C17.6246 19.8614 17.51 19.7845 17.4135 19.6877L9.9935 12.0785L2.58647 19.6877C2.44165 19.8351 2.25612 19.936 2.05363 19.9773C1.85114 20.0187 1.64092 19.9987 1.44988 19.9198C1.25885 19.841 1.09569 19.7069 0.981319 19.5348C0.866944 19.3626 0.806553 19.1603 0.80788 18.9536C0.807776 18.8173 0.834573 18.6823 0.886735 18.5563C0.938897 18.4303 1.0154 18.3159 1.11186 18.2195L9.0751 10.2223C9.32896 10.0024 9.65234 9.74536 9.97572 9.80033Z" fill="#FF993C"/>
<path d="M10.9119 0.436862L18.8881 8.43083C18.9846 8.52765 19.0611 8.64254 19.1132 8.76892C19.1653 8.89531 19.192 9.03072 19.1918 9.16742C19.1915 9.30413 19.1644 9.43945 19.1119 9.56567C19.0594 9.69188 18.9825 9.80651 18.8857 9.90302C18.7888 9.99952 18.6739 10.076 18.5476 10.1281C18.4212 10.1802 18.2858 10.2069 18.1491 10.2067C18.0124 10.2065 17.877 10.1793 17.7508 10.1268C17.6246 10.0743 17.51 9.99742 17.4135 9.90059L9.9935 2.29307L2.58647 9.90221C2.44165 10.0496 2.25612 10.1505 2.05363 10.1919C1.85114 10.2332 1.64092 10.2132 1.44988 10.1343C1.25885 10.0555 1.09569 9.92142 0.981319 9.74929C0.866944 9.57715 0.806553 9.3748 0.80788 9.16813C0.807776 9.0318 0.834573 8.89678 0.886735 8.77081C0.938897 8.64485 1.0154 8.53041 1.11186 8.43406L9.0751 0.436862C9.32896 0.215346 9.65234 -0.0417414 9.97572 0.0132332C10.2991 -0.0595274 10.6548 0.179774 10.9119 0.436862V0.436862Z" fill="#FF993C"/>
</g>
<defs>
<clipPath id="clip0_614_36">
<rect width="20" height="20" fill="white" transform="translate(20) rotate(90)"/>
</clipPath>
</defs>
</svg>
