<svg width="36" height="36" viewBox="0 0 36 36" fill="none" xmlns="http://www.w3.org/2000/svg">
<g clip-path="url(#clip0_612_18)">
<path d="M11.2552 26.22C12.1752 26.22 12.7552 25.56 12.7552 24.64C12.7552 23.7 12.1552 23.04 11.2752 23.04C10.4152 23.04 9.77523 23.72 9.77523 24.64C9.77523 25.52 10.3352 26.22 11.2552 26.22ZM22.7102 13.68H22.6702L21.3102 10.48L19.7902 11.36L21.9502 14.12L21.9302 14.16L18.6302 13.68V15.38L21.9702 14.9V14.94L19.7902 17.72L21.2302 18.62L22.6302 15.38L22.6702 15.36L24.0302 18.6L25.5702 17.7L23.3702 14.98V14.92L26.7702 15.38V13.68L23.3702 14.18V14.14L25.5502 11.32L24.0502 10.46L22.7102 13.68Z" fill="#6F6F6F"/>
</g>
<defs>
<clipPath id="clip0_612_18">
<rect width="36" height="36" fill="white"/>
</clipPath>
</defs>
</svg>
