<svg width="36" height="36" viewBox="0 0 36 36" fill="none" xmlns="http://www.w3.org/2000/svg">
<g clip-path="url(#clip0_612_28)">
<path d="M24.8773 8.61C24.8773 7.44 24.4273 6.37 22.8073 6.37C22.0673 6.37 21.4173 6.58 21.0273 6.83L21.2673 7.6C21.6173 7.37 22.1173 7.22 22.6073 7.22C23.7173 7.22 23.7173 8.04 23.7173 8.45C21.8273 8.45 20.6373 9.13 20.6373 10.5C20.6373 11.35 21.2273 12.11 22.2573 12.11C22.9473 12.11 23.4873 11.79 23.7973 11.36H23.8273L23.9073 12H24.9573C24.8873 11.64 24.8773 11.16 24.8773 10.69V8.61ZM23.7473 10.14C23.7473 10.78 23.2273 11.26 22.5973 11.26C22.1673 11.26 21.7873 10.99 21.7873 10.38C21.7873 9.4 22.8373 9.23 23.7473 9.23V10.14ZM27.4996 7.26V3.98H26.3396V10.53C26.3396 11.03 26.3196 11.63 26.2996 12H27.2896L27.3496 11.17H27.3796C27.7496 11.82 28.2996 12.11 29.0096 12.11C30.1496 12.11 31.3196 11.17 31.3196 9.16C31.3196 7.48 30.4496 6.37 29.1896 6.37C28.4196 6.37 27.8496 6.7 27.5196 7.26H27.4996ZM27.4996 8.74C27.4996 8.01 28.0396 7.3 28.7696 7.3C29.6896 7.3 30.1396 8.17 30.1396 9.21C30.1396 10.39 29.6496 11.18 28.7596 11.18C27.9996 11.18 27.4996 10.52 27.4996 9.82V8.74Z" fill="#8D8D8D"/>
<path d="M15 17H23C24.6569 17 26 18.3431 26 20V27" stroke="#8D8D8D" stroke-linecap="round"/>
<path d="M14.5658 24.61C14.5658 23.44 14.1158 22.37 12.4958 22.37C11.7558 22.37 11.1058 22.58 10.7158 22.83L10.9558 23.6C11.3058 23.37 11.8058 23.22 12.2958 23.22C13.4058 23.22 13.4058 24.04 13.4058 24.45C11.5158 24.45 10.3258 25.13 10.3258 26.5C10.3258 27.35 10.9158 28.11 11.9458 28.11C12.6358 28.11 13.1758 27.79 13.4858 27.36H13.5158L13.5958 28H14.6458C14.5758 27.64 14.5658 27.16 14.5658 26.69V24.61ZM13.4358 26.14C13.4358 26.78 12.9158 27.26 12.2858 27.26C11.8558 27.26 11.4758 26.99 11.4758 26.38C11.4758 25.4 12.5258 25.23 13.4358 25.23V26.14ZM19.5781 26.96C19.3181 27.07 18.9981 27.18 18.5381 27.18C17.5781 27.18 16.8681 26.46 16.8681 25.25C16.8681 24.17 17.4681 23.29 18.5481 23.29C19.0181 23.29 19.3381 23.41 19.5381 23.51L19.7681 22.62C19.5281 22.5 19.0681 22.37 18.5381 22.37C16.7681 22.37 15.6881 23.63 15.6881 25.3C15.6881 27.02 16.7281 28.11 18.3181 28.11C18.9581 28.11 19.4781 27.95 19.7381 27.83L19.5781 26.96Z" fill="#8D8D8D"/>
<rect x="6.5" y="19.5" width="17" height="11" rx="2.5" stroke="#8D8D8D"/>
<path d="M19.5 9C13 9 11.5 11 11.5 16M9 14L10.7318 16.0781C11.1316 16.5579 11.8684 16.5579 12.2682 16.0781L14 14" stroke="#8D8D8D" stroke-linecap="round"/>
</g>
<defs>
<clipPath id="clip0_612_28">
<rect width="36" height="36" fill="white"/>
</clipPath>
</defs>
</svg>
