<svg width="36" height="36" viewBox="0 0 36 36" fill="none" xmlns="http://www.w3.org/2000/svg">
<path d="M25.6062 8.312V4.376H24.2142V12.236C24.2142 12.836 24.1902 13.556 24.1662 14H25.3542L25.4262 13.004H25.4622C25.9062 13.784 26.5662 14.132 27.4182 14.132C28.7862 14.132 30.1902 13.004 30.1902 10.592C30.1902 8.576 29.1462 7.244 27.6342 7.244C26.7102 7.244 26.0262 7.64 25.6302 8.312H25.6062ZM25.6062 10.088C25.6062 9.212 26.2542 8.36 27.1302 8.36C28.2342 8.36 28.7742 9.404 28.7742 10.652C28.7742 12.068 28.1862 13.016 27.1182 13.016C26.2062 13.016 25.6062 12.224 25.6062 11.384V10.088Z" fill="#8D8D8D"/>
<path d="M18.3003 26.752C17.9883 26.884 17.6043 27.016 17.0523 27.016C15.9003 27.016 15.0483 26.152 15.0483 24.7C15.0483 23.404 15.7683 22.348 17.0643 22.348C17.6283 22.348 18.0123 22.492 18.2523 22.612L18.5283 21.544C18.2403 21.4 17.6883 21.244 17.0523 21.244C14.9283 21.244 13.6323 22.756 13.6323 24.76C13.6323 26.824 14.8803 28.132 16.7883 28.132C17.5563 28.132 18.1803 27.94 18.4923 27.796L18.3003 26.752Z" fill="#8D8D8D"/>
<rect x="8.5" y="18.5" width="15" height="12" rx="2.5" stroke="#8D8D8D"/>
<path d="M22.5 9C17 9 15.5 11 15.5 16M13 14L14.7318 16.0781C15.1316 16.5579 15.8684 16.5579 16.2682 16.0781L18 14" stroke="#8D8D8D" stroke-linecap="round"/>
</svg>
