<svg width="36" height="36" viewBox="0 0 36 36" fill="none" xmlns="http://www.w3.org/2000/svg">
<g clip-path="url(#clip0_612_20)">
<path d="M13.393 10.7H10.553L5.87305 26H8.25305L9.57305 21.5H14.253L15.633 26H18.073L13.393 10.7ZM9.93305 19.72L11.153 15.7C11.413 14.76 11.653 13.64 11.873 12.7H11.913C12.133 13.64 12.393 14.72 12.673 15.72L13.873 19.72H9.93305ZM26.7157 17.74C28.3157 17.14 29.2357 15.86 29.2357 14.4C29.2357 12.86 28.4357 10.58 23.7757 10.58C22.4157 10.58 21.0557 10.72 20.1957 10.9V25.96C20.8557 26.04 21.8757 26.14 23.2357 26.14C25.7557 26.14 27.4357 25.68 28.4557 24.7C29.0157 24.18 29.7757 23.24 29.7757 21.62C29.7757 19.48 28.3157 18.2 26.7157 17.8V17.74ZM22.4957 17.08V12.46C22.7757 12.4 23.2357 12.34 23.9957 12.34C25.4357 12.34 26.9157 12.8 26.9157 14.64C26.9157 16.06 25.7557 17.08 23.9157 17.08H22.4957ZM22.4957 18.8H23.8357C25.6157 18.8 27.3557 19.54 27.3557 21.56C27.3557 23.58 25.7557 24.36 23.8957 24.36C23.2957 24.36 22.8357 24.34 22.4957 24.28V18.8Z" fill="#6F6F6F"/>
</g>
<defs>
<clipPath id="clip0_612_20">
<rect width="36" height="36" fill="white"/>
</clipPath>
</defs>
</svg>
