<svg width="36" height="36" viewBox="0 0 36 36" fill="none" xmlns="http://www.w3.org/2000/svg">
<path d="M15.7547 18.22C15.7547 15.88 14.8547 13.74 11.6147 13.74C10.1347 13.74 8.83469 14.16 8.05469 14.66L8.53469 16.2C9.23469 15.74 10.2347 15.44 11.2147 15.44C13.4347 15.44 13.4347 17.08 13.4347 17.9C9.65469 17.9 7.27469 19.26 7.27469 22C7.27469 23.7 8.45469 25.22 10.5147 25.22C11.8947 25.22 12.9747 24.58 13.5947 23.72H13.6547L13.8147 25H15.9147C15.7747 24.28 15.7547 23.32 15.7547 22.38V18.22ZM13.4947 21.28C13.4947 22.56 12.4547 23.52 11.1947 23.52C10.3347 23.52 9.57469 22.98 9.57469 21.76C9.57469 19.8 11.6747 19.46 13.4947 19.46V21.28ZM20.9992 15.52V8.96H18.6792V22.06C18.6792 23.06 18.6392 24.26 18.5992 25H20.5792L20.6992 23.34H20.7592C21.4992 24.64 22.5992 25.22 24.0192 25.22C26.2992 25.22 28.6392 23.34 28.6392 19.32C28.6392 15.96 26.8992 13.74 24.3792 13.74C22.8392 13.74 21.6992 14.4 21.0392 15.52H20.9992ZM20.9992 18.48C20.9992 17.02 22.0792 15.6 23.5392 15.6C25.3792 15.6 26.2792 17.34 26.2792 19.42C26.2792 21.78 25.2992 23.36 23.5192 23.36C21.9992 23.36 20.9992 22.04 20.9992 20.64V18.48Z" fill="#FF6B00"/>
<path d="M5 24V26C5 26.5523 5.44772 27 6 27H30C30.5523 27 31 26.5523 31 26V24" stroke="#FF6B00" stroke-linecap="round"/>
</svg>
