<svg width="30" height="30" viewBox="0 0 30 30" fill="none" xmlns="http://www.w3.org/2000/svg">
<path d="M26.25 13.71H24.345V10.095C24.345 9.17998 23.595 8.42998 22.68 8.42998H14.22C13.965 8.42998 13.725 8.32498 13.56 8.15998C13.38 7.97998 13.29 7.73998 13.29 7.49998V7.51498C13.29 7.07998 13.11 6.64498 12.81 6.34498C12.495 6.02998 12.075 5.84998 11.64 5.84998H5.67002C5.23502 5.84998 4.80002 6.02998 4.50002 6.32998C4.18502 6.64498 4.02002 7.06498 4.02002 7.49998V21.57C4.02002 22.485 4.77002 23.235 5.68502 23.235H22.71C23.625 23.235 24.66 22.485 24.99 21.57L27.3 15.375C27.63 14.46 27.165 13.71 26.25 13.71ZM11.565 7.57498C11.61 9.01498 12.78 10.17 14.22 10.17H22.62V13.725H9.22502C8.31002 13.725 7.27502 14.475 6.94502 15.39L5.73002 18.63V7.57498H11.565Z" fill="#6F6F6F"/>
</svg>
