<svg width="40" height="40" viewBox="0 0 40 40" fill="none" xmlns="http://www.w3.org/2000/svg">
<path d="M28.7298 34.4507H11.4022C10.8965 34.4507 10.3957 34.3511 9.92851 34.1576C9.46129 33.9641 9.03676 33.6804 8.67917 33.3228C8.32158 32.9652 8.03792 32.5407 7.84439 32.0735C7.65087 31.6063 7.55126 31.1055 7.55127 30.5998V9.4207C7.55126 8.91499 7.65087 8.41422 7.84439 7.947C8.03792 7.47979 8.32158 7.05526 8.67917 6.69767C9.03676 6.34007 9.46129 6.05641 9.92851 5.86289C10.3957 5.66936 10.8965 5.56976 11.4022 5.56976H23.7847C24.1185 5.50703 24.4721 5.58547 24.7298 5.8432L32.2404 13.3543C32.4075 13.5209 32.5047 13.7297 32.5361 13.9463C32.5656 14.0368 32.5795 14.134 32.5795 14.2342V30.5998C32.5797 31.1055 32.4803 31.6063 32.287 32.0735C32.0936 32.5408 31.8101 32.9653 31.4526 33.323C31.095 33.6806 30.6706 33.9642 30.2034 34.1578C29.7362 34.3513 29.2355 34.4508 28.7298 34.4507ZM24.8789 8.99762V13.2716H29.1528L24.8789 8.99765V8.99762ZM30.6556 15.1968H23.9169C23.6616 15.1968 23.4167 15.0954 23.236 14.9149C23.0554 14.7344 22.9539 14.4895 22.9537 14.2342V7.49492H11.4022C11.1493 7.49492 10.8989 7.54475 10.6653 7.64153C10.4317 7.73832 10.2195 7.88019 10.0407 8.05902C9.86191 8.23785 9.72012 8.45015 9.62341 8.68379C9.5267 8.91743 9.47697 9.16784 9.47705 9.4207V30.5998C9.47705 30.8526 9.52685 31.1029 9.62361 31.3364C9.72036 31.57 9.86218 31.7822 10.041 31.9609C10.2197 32.1396 10.432 32.2814 10.6655 32.378C10.8991 32.4747 11.1494 32.5245 11.4022 32.5244H28.7292C28.982 32.5245 29.2323 32.4747 29.4659 32.3781C29.6995 32.2814 29.9118 32.1397 30.0906 31.9609C30.2695 31.7822 30.4113 31.57 30.5082 31.3365C30.605 31.1029 30.6549 30.8526 30.6549 30.5998V15.1968H30.6556Z" fill="#6F6F6F"/>
</svg>
