<svg width="25" height="25" viewBox="0 0 25 25" fill="none" xmlns="http://www.w3.org/2000/svg">
<path d="M2.34375 25V0H13.2812V9.375H22.6562V25H2.34375ZM12.5 11.7188C12.5 11.5115 12.4177 11.3128 12.2712 11.1663C12.1247 11.0198 11.926 10.9375 11.7188 10.9375H4.6875C4.4803 10.9375 4.28159 11.0198 4.13507 11.1663C3.98856 11.3128 3.90625 11.5115 3.90625 11.7188V14.0625C3.90625 14.2697 3.98856 14.4684 4.13507 14.6149C4.28159 14.7614 4.4803 14.8438 4.6875 14.8438H11.7188C11.926 14.8438 12.1247 14.7614 12.2712 14.6149C12.4177 14.4684 12.5 14.2697 12.5 14.0625V11.7188ZM21.0938 17.1875C21.0938 16.9803 21.0114 16.7816 20.8649 16.6351C20.7184 16.4886 20.5197 16.4062 20.3125 16.4062H4.6875C4.4803 16.4062 4.28159 16.4886 4.13507 16.6351C3.98856 16.7816 3.90625 16.9803 3.90625 17.1875V19.5312C3.90625 19.7385 3.98856 19.9372 4.13507 20.0837C4.28159 20.2302 4.4803 20.3125 4.6875 20.3125H20.3125C20.5197 20.3125 20.7184 20.2302 20.8649 20.0837C21.0114 19.9372 21.0938 19.7385 21.0938 19.5312V17.1875Z" fill="#838383"/>
<path d="M14.8438 0L22.6562 7.8125H14.8438V0Z" fill="#A8A8A8"/>
</svg>
