<svg width="40" height="40" viewBox="0 0 40 40" fill="none" xmlns="http://www.w3.org/2000/svg">
<path d="M34.9999 18.28H32.4599V13.46C32.4599 12.24 31.4599 11.24 30.2399 11.24H18.9599C18.6199 11.24 18.2999 11.1 18.0799 10.88C17.8399 10.64 17.7199 10.32 17.7199 9.99999V10.02C17.7199 9.43999 17.4799 8.85999 17.0799 8.45999C16.6599 8.03999 16.0999 7.79999 15.5199 7.79999H7.55986C6.97986 7.79999 6.39986 8.03999 5.99986 8.43999C5.57986 8.85999 5.35986 9.41999 5.35986 9.99999V28.76C5.35986 29.98 6.35986 30.98 7.57986 30.98H30.2799C31.4999 30.98 32.8799 29.98 33.3199 28.76L36.3999 20.5C36.8399 19.28 36.2199 18.28 34.9999 18.28ZM15.4199 10.1C15.4799 12.02 17.0399 13.56 18.9599 13.56H30.1599V18.3H12.2999C11.0799 18.3 9.69986 19.3 9.25986 20.52L7.63986 24.84V10.1H15.4199Z" fill="#6F6F6F"/>
</svg>
