<svg width="51" height="51" viewBox="0 0 51 51" fill="none" xmlns="http://www.w3.org/2000/svg">
<g filter="url(#filter0_d_801_7)">
<circle cx="25.5" cy="25.5" r="20.5" fill="white"/>
</g>
<path d="M15.9375 18.5H14.6875C14.4389 18.5 14.2004 18.4012 14.0246 18.2254C13.8488 18.0496 13.75 17.8111 13.75 17.5625C13.75 17.3139 13.8488 17.0754 14.0246 16.8996C14.2004 16.7238 14.4389 16.625 14.6875 16.625H35.3125C35.5611 16.625 35.7996 16.7238 35.9754 16.8996C36.1512 17.0754 36.25 17.3139 36.25 17.5625C36.25 17.8111 36.1512 18.0496 35.9754 18.2254C35.7996 18.4012 35.5611 18.5 35.3125 18.5H17.8125V35.0625C17.8125 35.2677 17.8529 35.4709 17.9314 35.6604C18.01 35.85 18.1251 36.0223 18.2701 36.1674C18.4152 36.3124 18.5875 36.4275 18.7771 36.5061C18.9666 36.5846 19.1698 36.625 19.375 36.625H30.625C30.8302 36.625 31.0334 36.5846 31.2229 36.5061C31.4125 36.4275 31.5848 36.3124 31.7299 36.1674C31.8749 36.0223 31.99 35.85 32.0686 35.6604C32.1471 35.4709 32.1875 35.2677 32.1875 35.0625V21.3125C32.1875 21.0639 32.2863 20.8254 32.4621 20.6496C32.6379 20.4738 32.8764 20.375 33.125 20.375C33.3736 20.375 33.6121 20.4738 33.7879 20.6496C33.9637 20.8254 34.0625 21.0639 34.0625 21.3125V35.0625C34.0625 36.9609 32.5234 38.5 30.625 38.5H19.375C17.4766 38.5 15.9375 36.9609 15.9375 35.0625V18.5ZM22.5 15.375C22.2514 15.375 22.0129 15.2762 21.8371 15.1004C21.6613 14.9246 21.5625 14.6861 21.5625 14.4375C21.5625 14.1889 21.6613 13.9504 21.8371 13.7746C22.0129 13.5988 22.2514 13.5 22.5 13.5H27.5C27.7486 13.5 27.9871 13.5988 28.1629 13.7746C28.3387 13.9504 28.4375 14.1889 28.4375 14.4375C28.4375 14.6861 28.3387 14.9246 28.1629 15.1004C27.9871 15.2762 27.7486 15.375 27.5 15.375H22.5ZM21.5625 23.8125C21.5625 23.5639 21.6613 23.3254 21.8371 23.1496C22.0129 22.9738 22.2514 22.875 22.5 22.875C22.7486 22.875 22.9871 22.9738 23.1629 23.1496C23.3387 23.3254 23.4375 23.5639 23.4375 23.8125V31.3125C23.4375 31.5611 23.3387 31.7996 23.1629 31.9754C22.9871 32.1512 22.7486 32.25 22.5 32.25C22.2514 32.25 22.0129 32.1512 21.8371 31.9754C21.6613 31.7996 21.5625 31.5611 21.5625 31.3125V23.8125ZM26.5625 23.8125C26.5625 23.5639 26.6613 23.3254 26.8371 23.1496C27.0129 22.9738 27.2514 22.875 27.5 22.875C27.7486 22.875 27.9871 22.9738 28.1629 23.1496C28.3387 23.3254 28.4375 23.5639 28.4375 23.8125V31.3125C28.4375 31.5611 28.3387 31.7996 28.1629 31.9754C27.9871 32.1512 27.7486 32.25 27.5 32.25C27.2514 32.25 27.0129 32.1512 26.8371 31.9754C26.6613 31.7996 26.5625 31.5611 26.5625 31.3125V23.8125Z" fill="#FF4141"/>
<defs>
<filter id="filter0_d_801_7" x="0" y="0" width="51" height="51" filterUnits="userSpaceOnUse" color-interpolation-filters="sRGB">
<feFlood flood-opacity="0" result="BackgroundImageFix"/>
<feColorMatrix in="SourceAlpha" type="matrix" values="0 0 0 0 0 0 0 0 0 0 0 0 0 0 0 0 0 0 127 0" result="hardAlpha"/>
<feOffset/>
<feGaussianBlur stdDeviation="2.5"/>
<feComposite in2="hardAlpha" operator="out"/>
<feColorMatrix type="matrix" values="0 0 0 0 0 0 0 0 0 0 0 0 0 0 0 0 0 0 0.25 0"/>
<feBlend mode="normal" in2="BackgroundImageFix" result="effect1_dropShadow_801_7"/>
<feBlend mode="normal" in="SourceGraphic" in2="effect1_dropShadow_801_7" result="shape"/>
</filter>
</defs>
</svg>
