<svg width="51" height="51" viewBox="0 0 51 51" fill="none" xmlns="http://www.w3.org/2000/svg">
<g filter="url(#filter0_d_801_24)">
<circle cx="25.5" cy="25.5" r="20.5" fill="white"/>
</g>
<path d="M30.3815 13.6641C30.8782 13.1681 31.6988 13.1841 32.2228 13.7081L35.0515 16.5367C35.5722 17.0574 35.5935 17.8801 35.0962 18.3781L21.1695 32.3047C20.9215 32.5521 20.4475 32.8281 20.1002 32.9227L15.6095 34.1494C14.9248 34.3367 14.5122 33.9274 14.6855 33.2447L15.8495 28.6581C15.9362 28.3161 16.2108 27.8347 16.4555 27.5901L30.3822 13.6634L30.3815 13.6641ZM17.3982 28.5334C17.3075 28.6241 17.1448 28.9107 17.1128 29.0341L16.2028 32.6207L19.7015 31.6654C19.8402 31.6274 20.1275 31.4607 20.2268 31.3614L34.1535 17.4347L31.3248 14.6067L17.3982 28.5334ZM30.3375 15.5934L33.1662 18.4221L32.2228 19.3654L29.3948 16.5367L30.3375 15.5941V15.5934ZM19.0242 26.9074L21.8522 29.7361L20.9095 30.6787L18.0808 27.8507L19.0235 26.9074H19.0242ZM14.3335 37.3334C14.3335 36.9654 14.6282 36.6667 15.0042 36.6667H35.6628C35.8396 36.6667 36.0092 36.737 36.1342 36.862C36.2593 36.987 36.3295 37.1566 36.3295 37.3334C36.3295 37.5102 36.2593 37.6798 36.1342 37.8048C36.0092 37.9298 35.8396 38.0001 35.6628 38.0001H15.0042C14.9163 38.0006 14.8292 37.9837 14.7478 37.9505C14.6665 37.9172 14.5925 37.8682 14.5302 37.8062C14.4678 37.7443 14.4184 37.6706 14.3846 37.5894C14.3509 37.5083 14.3335 37.4213 14.3335 37.3334Z" fill="#0000D9"/>
<defs>
<filter id="filter0_d_801_24" x="0" y="0" width="51" height="51" filterUnits="userSpaceOnUse" color-interpolation-filters="sRGB">
<feFlood flood-opacity="0" result="BackgroundImageFix"/>
<feColorMatrix in="SourceAlpha" type="matrix" values="0 0 0 0 0 0 0 0 0 0 0 0 0 0 0 0 0 0 127 0" result="hardAlpha"/>
<feOffset/>
<feGaussianBlur stdDeviation="2.5"/>
<feComposite in2="hardAlpha" operator="out"/>
<feColorMatrix type="matrix" values="0 0 0 0 0 0 0 0 0 0 0 0 0 0 0 0 0 0 0.25 0"/>
<feBlend mode="normal" in2="BackgroundImageFix" result="effect1_dropShadow_801_24"/>
<feBlend mode="normal" in="SourceGraphic" in2="effect1_dropShadow_801_24" result="shape"/>
</filter>
</defs>
</svg>
