<svg width="51" height="51" viewBox="0 0 51 51" fill="none" xmlns="http://www.w3.org/2000/svg">
<g filter="url(#filter0_d_803_23)">
<circle cx="25.5" cy="25.5" r="20.5" fill="white"/>
</g>
<path d="M26.1641 35.969C25.8359 35.969 25.5078 35.8518 25.2266 35.6408L25.0859 35.5237C22.6016 33.4612 16.7422 28.6096 14.3281 26.5471C13.8594 26.1487 13.6016 25.5862 13.6016 25.0002C13.6016 24.4377 13.8359 23.8987 14.2812 23.5002C16.8594 21.2971 23.8437 15.4846 25.25 14.3362C25.625 14.008 26.2109 13.9377 26.6797 14.1252C27.1719 14.3362 27.4766 14.7815 27.4766 15.344V20.3596C29.8672 20.7815 37.4609 22.9143 38.4219 32.7346V32.8049C38.4219 33.2737 38.1406 33.6487 37.7188 33.7424C37.2969 33.8596 36.8516 33.6721 36.6406 33.344C34.1563 29.6643 29.4453 29.5237 27.4766 29.6408V34.7268C27.4766 35.1955 27.2188 35.594 26.7734 35.8283C26.5859 35.9221 26.375 35.969 26.1641 35.969V35.969ZM26.0469 34.5158C26.0703 34.5158 26.0703 34.5393 26.0469 34.5158L26.0703 29.1955C26.0703 28.7033 26.4453 28.3049 26.9141 28.2815C28.5313 28.1174 33.5234 27.9533 36.8047 31.3283C35.2812 23.5002 28.8828 22.0002 26.8672 21.719H26.8203C26.375 21.6252 26.0703 21.2737 26.0703 20.8283V15.4846C24.5234 16.7502 17.7266 22.4221 15.1719 24.5783C15.0312 24.719 14.9844 24.883 14.9844 25.0002C14.9844 25.1877 15.0781 25.3518 15.2187 25.469C17.6328 27.508 23.4687 32.3596 25.9531 34.4221L26.0469 34.5158V34.5158Z" fill="#6F6F6F"/>
<defs>
<filter id="filter0_d_803_23" x="0" y="0" width="51" height="51" filterUnits="userSpaceOnUse" color-interpolation-filters="sRGB">
<feFlood flood-opacity="0" result="BackgroundImageFix"/>
<feColorMatrix in="SourceAlpha" type="matrix" values="0 0 0 0 0 0 0 0 0 0 0 0 0 0 0 0 0 0 127 0" result="hardAlpha"/>
<feOffset/>
<feGaussianBlur stdDeviation="2.5"/>
<feComposite in2="hardAlpha" operator="out"/>
<feColorMatrix type="matrix" values="0 0 0 0 0 0 0 0 0 0 0 0 0 0 0 0 0 0 0.25 0"/>
<feBlend mode="normal" in2="BackgroundImageFix" result="effect1_dropShadow_803_23"/>
<feBlend mode="normal" in="SourceGraphic" in2="effect1_dropShadow_803_23" result="shape"/>
</filter>
</defs>
</svg>
