<svg width="45" height="45" viewBox="0 0 45 45" fill="none" xmlns="http://www.w3.org/2000/svg">
<path d="M25.7261 22.5262L42.7852 5.46768C43.6466 4.60631 43.6466 3.18699 42.7852 2.32563L42.692 2.23245C41.8307 1.37108 40.4114 1.37108 39.55 2.23245L22.4909 19.3148L5.43239 2.23245C4.57102 1.37108 3.15171 1.37108 2.29034 2.23245L2.19716 2.32563C1.31307 3.18699 1.31307 4.60631 2.19716 5.46768L19.2563 22.5268L2.19716 39.5853C1.33636 40.4466 1.33636 41.866 2.19716 42.7273L2.29034 42.8205C3.15171 43.6819 4.57102 43.6819 5.43239 42.8205L22.4909 25.7614L39.55 42.8199C40.4114 43.6813 41.8307 43.6813 42.692 42.8199L42.7852 42.7268C43.6466 41.8654 43.6466 40.4461 42.7852 39.5847L25.7261 22.5262Z" fill="#FF6B00"/>
</svg>
